# Blender 5.0.1
# www.blender.org
o collision
v 20.013351 1.000000 20.009125
v -20.013351 1.000000 20.009125
v -20.013351 1.000000 -20.009125
v 20.013351 1.000000 -20.009125
v 14.206639 1.000000 -13.828470
v 13.626416 1.000000 -13.946681
v 8.819076 1.000000 -12.169807
v -20.013351 4.455434 20.009125
v 11.926306 4.455434 -9.440212
v 15.963994 4.455434 -9.604683
v 11.763583 4.455434 -10.032844
v -9.189716 4.455434 -10.266031
v 11.440574 4.455434 -10.333498
v 11.083928 4.455434 -10.471227
v -8.779727 4.455434 -10.466528
v 8.819076 4.455434 -12.169807
v 20.013351 4.455434 20.009125
v 15.952158 4.455434 -10.001324
v 14.584906 4.455434 -13.482038
v -15.835340 4.455434 -10.667188
v -13.858042 1.000000 -12.134273
v -14.453059 1.000000 -11.996247
v -15.103735 1.000000 -11.613292
v -15.525220 1.000000 -11.186356
v -15.835340 1.000000 -10.667188
v -16.010433 1.000000 -10.097176
v -18.187725 1.000000 10.327006
v -18.031635 1.000000 10.757700
v -14.941600 1.000000 14.570412
v -14.654635 1.000000 14.755059
v -14.368071 1.000000 14.831022
v -7.990855 1.000000 14.831514
v -7.634891 1.000000 14.734474
v -15.525220 4.455434 -11.186356
v -20.013351 4.455434 -20.009125
v -9.516966 1.000000 11.448694
v -9.796762 1.000000 11.522499
v -16.010433 4.455434 -10.097176
v 11.306612 4.455434 0.109459
v 9.256560 4.455434 0.103955
v 0.812034 4.455434 -5.690729
v -0.244008 4.455434 -5.754432
v 0.255348 4.455434 -5.868938
v -12.861029 4.455434 -5.997651
v -12.685734 4.455434 -6.539711
v 13.819800 4.455434 -7.214229
v 13.978139 4.455434 -7.442828
v -12.348180 4.455434 -7.094702
v 15.794141 4.455434 -9.185647
v -12.365203 1.000000 11.528695
v -12.627035 1.000000 11.502041
v -12.987970 1.000000 11.312038
v -14.500165 1.000000 9.735013
v -14.646658 1.000000 9.430343
v -14.687149 1.000000 9.137350
v -12.861029 1.000000 -5.997651
v -12.685734 1.000000 -6.539711
v -12.348180 1.000000 -7.094702
v -9.189716 1.000000 -10.266031
v -8.779727 1.000000 -10.466528
v 11.083928 1.000000 -10.471227
v 11.440574 1.000000 -10.333498
v 11.763583 1.000000 -10.032844
v 11.926306 1.000000 -9.440212
v 9.256560 1.000000 0.103955
v -14.453059 4.455434 -11.996247
v 9.250401 1.000000 12.763515
v 9.142473 1.000000 12.981627
v 8.919160 1.000000 13.124532
v 8.649494 1.000000 13.112672
v 8.454637 1.000000 12.981623
v 8.346570 1.000000 12.763033
v 8.344064 1.000000 12.263461
v 8.227464 1.000000 11.923392
v -2.008627 1.000000 1.551615
v -2.159327 1.000000 0.976182
v -2.041266 1.000000 0.565583
v -1.820226 1.000000 0.273445
v -0.911809 1.000000 -0.302575
v -0.388022 1.000000 -0.342860
v 0.033241 1.000000 -0.163250
v 1.806506 1.000000 1.670420
v 1.949384 1.000000 1.963745
v 1.997397 1.000000 2.341063
v 1.815303 1.000000 2.837429
v 1.368101 1.000000 3.263207
v -15.103735 4.455434 -11.613292
v 7.245441 1.000000 2.840401
v 7.402427 1.000000 2.308426
v 7.272055 1.000000 1.797591
v 0.812034 1.000000 -5.690729
v 0.255348 1.000000 -5.868938
v -0.244008 1.000000 -5.754432
v -7.284290 1.000000 -0.137961
v -7.465118 1.000000 0.139883
v -7.558828 1.000000 0.514638
v -7.431434 1.000000 1.034921
v 4.492349 1.000000 14.878954
v 4.937208 1.000000 15.118924
v 10.561921 1.000000 15.116980
v 11.065687 1.000000 14.798438
v 11.298751 1.000000 14.327044
v 11.306612 1.000000 0.109459
v 13.819800 1.000000 -7.214229
v 13.978139 1.000000 -7.442828
v 15.794141 1.000000 -9.185647
v 15.963994 1.000000 -9.604683
v 15.952158 1.000000 -10.001324
v 14.584906 1.000000 -13.482038
v 20.013351 4.455434 -20.009125
v 0.397694 1.000000 3.989832
v 14.206639 4.455434 -13.828470
v 2.912384 1.000000 6.537857
v -13.858042 4.455434 -12.134273
v -2.626368 1.000000 6.613813
v -0.293153 1.000000 9.322776
v 13.626416 4.455434 -13.946681
v -7.284290 4.455434 -0.137961
v 7.272055 4.455434 1.797591
v -0.911809 4.455434 -0.302575
v -0.388022 4.455434 -0.342860
v 0.033241 4.455434 -0.163250
v -7.465118 4.455434 0.139883
v -1.820226 4.455434 0.273445
v -18.187725 4.455434 10.327006
v -7.558828 4.455434 0.514638
v -2.041266 4.455434 0.565583
v -2.159327 4.455434 0.976182
v -7.431434 4.455434 1.034921
v 1.806506 4.455434 1.670420
v -2.008627 4.455434 1.551615
v -14.687149 4.455434 9.137350
v 1.949384 4.455434 1.963745
v 7.402427 4.455434 2.308426
v 1.997397 4.455434 2.341063
v 7.245441 4.455434 2.840401
v 1.815303 4.455434 2.837429
v 1.368101 4.455434 3.263207
v 11.298751 4.455434 14.327044
v 9.250401 4.455434 12.763515
v -0.293153 4.455434 9.322776
v 4.492349 4.455434 14.878954
v 0.397694 4.455434 3.989832
v -2.626368 4.455434 6.613813
v -9.516966 4.455434 11.448694
v -14.646658 4.455434 9.430343
v -14.500165 4.455434 9.735013
v -12.987970 4.455434 11.312038
v -18.031635 4.455434 10.757700
v -12.627035 4.455434 11.502041
v -9.796762 4.455434 11.522499
v -12.365203 4.455434 11.528695
v 8.344064 4.455434 12.263461
v 8.227464 4.455434 11.923392
v -14.941600 4.455434 14.570412
v 8.346570 4.455434 12.763033
v 9.142473 4.455434 12.981627
v 8.454637 4.455434 12.981623
v 8.919160 4.455434 13.124532
v 8.649494 4.455434 13.112672
v 11.065687 4.455434 14.798438
v -14.654635 4.455434 14.755059
v -14.368071 4.455434 14.831022
v -7.990855 4.455434 14.831514
v -7.634891 4.455434 14.734474
v 10.561921 4.455434 15.116980
v 4.937208 4.455434 15.118924
v 2.912384 4.455434 6.537857
v 0.397694 2.052902 3.989832
v 2.912384 2.071534 6.537857
v -0.293153 1.965886 9.322776
v -2.626368 1.955038 6.613813
vn -0.9591 -0.0000 -0.2830
vn -0.0003 -0.0000 -1.0000
vn -0.0000 -1.0000 -0.0000
vn 0.5411 -0.0000 -0.8410
vn 0.9402 -0.0000 -0.3407
vn 0.8963 -0.0000 0.4435
vn -0.9459 -0.0000 -0.3246
vn -0.6491 -0.0000 -0.7607
vn -0.7572 -0.0000 0.6532
vn -0.9906 -0.0000 0.1369
vn -0.0000 1.0000 -0.0000
vn 0.2551 -0.0000 0.9669
vn 1.0000 -0.0000 -0.0000
vn -0.9611 -0.0000 -0.2763
vn 0.0024 -0.0000 1.0000
vn 0.0001 -0.0000 -1.0000
vn 0.0016 -0.0000 1.0000
vn -0.1013 -0.0000 0.9949
vn 0.7769 -0.0000 -0.6296
vn -0.0000 -0.0000 -1.0000
vn -0.9268 -0.0000 -0.3757
vn 0.9701 -0.0000 0.2426
vn 0.5390 -0.0000 0.8423
vn 0.9388 -0.0000 0.3444
vn -0.0439 -0.0000 0.9990
vn -0.9674 -0.0000 0.2533
vn -0.8221 -0.0000 -0.5694
vn -0.4393 -0.0000 -0.8983
vn 0.8381 -0.0000 0.5455
vn -0.7218 -0.0000 0.6921
vn 0.9643 -0.0000 -0.2648
vn 0.2562 -0.0000 -0.9666
vn 0.5072 -0.0000 0.8618
vn -0.9515 -0.0000 -0.3077
vn -0.6924 -0.0000 -0.7215
vn -0.8964 -0.0000 0.4432
vn 0.8585 -0.0000 0.5128
vn 0.6813 -0.0000 -0.7320
vn -1.0000 -0.0000 0.0050
vn 0.7116 -0.0000 0.7025
vn 0.7577 -0.0000 -0.6526
vn 0.2260 -0.0000 0.9741
vn 0.9559 -0.0000 0.2936
vn 0.9920 -0.0000 -0.1262
vn -0.9996 -0.0000 0.0298
vn -0.0000 -0.0000 1.0000
vn -0.4658 -0.0000 0.8849
vn -0.9928 -0.0000 -0.1198
vn -0.9308 -0.0000 0.3656
vn -0.7975 -0.0000 -0.6034
vn -0.5933 -0.0000 -0.8050
vn 0.6895 -0.0000 0.7242
vn -0.8544 -0.0000 -0.5196
vn 0.3922 -0.0000 -0.9199
vn 0.4748 -0.0000 -0.8801
vn 0.5994 -0.0000 0.8005
vn -1.0000 -0.0000 -0.0006
vn 0.2235 -0.0000 0.9747
vn -0.0002 -0.0000 -1.0000
vn -1.0000 -0.0000 -0.0000
vn 0.9713 -0.0000 -0.2378
vn -0.3049 -0.0000 0.9524
vn -0.9459 -0.0000 0.3243
vn 0.3603 -0.0000 -0.9329
vn 0.3467 -0.0000 0.9380
vn 1.0000 -0.0000 0.0005
vn 0.7188 -0.0000 -0.6952
vn -0.0767 -0.0000 -0.9971
vn -0.6754 -0.0000 0.7375
vn -0.5581 -0.0000 0.8298
vn -0.5355 -0.0000 -0.8445
vn -0.5344 -0.0000 -0.8452
vn -0.7117 -0.0000 0.7024
vn 0.9944 -0.0000 0.1060
vn 0.8990 -0.0000 -0.4379
vn -0.7085 -0.0000 -0.7057
vn 0.9630 -0.0000 0.2694
vn -0.9012 -0.0000 0.4333
vn 0.5744 -0.0000 0.8186
vn -0.8964 -0.0000 -0.4432
vn -0.1996 -0.0000 0.9799
vn -0.2630 -0.0000 -0.9648
vn -0.9689 -0.0000 0.2473
vn 0.6236 -0.0000 0.7817
vn 0.7117 -0.0000 -0.7024
vn 0.3602 -0.0000 -0.9329
vt 0.706266 0.000000
vt 0.713070 0.000000
vt 0.828949 0.000000
vt 0.855037 0.000000
vt 0.589990 0.000000
vt 0.627912 0.000000
vt 0.667954 0.000000
vt 0.158279 0.000000
vt 0.165631 0.000000
vt 0.122933 0.000000
vt 0.134073 0.000000
vt 0.496680 0.000000
vt 0.503104 0.000000
vt 0.899014 0.000000
vt 0.931614 0.000000
vt 0.577721 0.000000
vt 0.085524 0.000000
vt 0.089423 0.000000
vt 0.003110 0.000000
vt 0.719494 0.000000
vt 0.743031 0.000000
vt 0.318042 0.000000
vt 0.324442 0.000000
vt 0.699844 0.000000
vt 0.664039 0.000000
vt 0.604997 0.000000
vt 0.082426 0.000000
vt 0.022132 0.000000
vt 0.000000 0.000000
vt 0.756818 0.000000
vt 0.421407 0.000000
vt 0.353809 0.000000
vt 0.238879 0.000000
vt 0.248060 0.000000
vt 0.004666 0.000000
vt 0.596414 0.000000
vt 0.601100 0.000000
vt 0.270607 0.000000
vt 0.172008 0.000000
vt 0.195596 0.000000
vt 0.050950 0.000000
vt 0.276820 0.000000
vt 0.966977 0.000000
vt 0.974342 0.000000
vt 0.783040 0.000000
vt 0.787720 0.000000
vt 0.510140 0.000000
vt 0.672635 0.000000
vt 0.679058 0.000000
vt 0.517083 0.000000
vt 0.942773 0.000000
vt 0.385344 0.000000
vt 0.396443 0.000000
vt 0.779125 0.000000
vt 0.286509 0.000000
vt 0.310714 0.000000
vt 0.430026 0.000000
vt 0.436449 0.000000
vt 0.347396 0.000000
vt 0.523335 0.000000
vt 0.529771 0.000000
vt 0.092540 0.000000
vt 0.095653 0.000000
vt 0.206807 0.000000
vt 0.425338 0.000000
vt 0.553362 0.000000
vt 0.750395 0.000000
vt 0.794127 0.000000
vt 0.803623 0.000000
vt 0.098648 0.000000
vt 0.808233 0.000000
vt 0.817690 0.000000
vt 0.980786 0.000000
vt 0.001555 0.000000
vt 0.008159 0.000000
vt 0.361129 0.000000
vt 0.635308 0.000000
vt 0.641731 0.000000
vt 0.583991 0.000000
vt 0.868807 0.000000
vt 0.564470 0.000000
vt 0.466060 0.000000
vt 0.014768 0.000000
vt 0.862370 0.000000
s 0
f 88/1/1 134/2/1 89/2/1
f 99/3/2 166/4/2 100/4/2
f 75/5/3 79/6/3 83/7/3
f 29/8/4 162/9/4 30/9/4
f 27/10/5 149/11/5 28/11/5
f 67/12/6 157/13/6 68/13/6
f 103/14/7 46/15/7 104/15/7
f 113/16/8 170/16/8 136/1/8
f 22/17/3 23/18/3 3/19/3
f 90/20/9 41/21/9 91/21/9
f 54/22/10 132/23/10 55/23/10
f 138/24/11 130/25/11 124/26/11
f 35/19/11 114/27/11 117/28/11
f 17/29/11 166/4/11 167/3/11
f 42/30/11 14/31/11 45/32/11
f 36/33/12 151/34/12 37/34/12
f 4/35/13 17/29/13 1/29/13
f 76/36/14 127/37/14 77/37/14
f 37/34/15 152/38/15 50/38/15
f 31/39/16 164/40/16 32/40/16
f 7/41/17 114/27/17 21/27/17
f 50/38/18 150/42/18 51/42/18
f 28/11/19 155/8/19 29/8/19
f 3/19/20 110/35/20 4/35/20
f 106/43/21 10/44/21 107/44/21
f 95/45/22 126/46/22 96/46/22
f 68/13/23 159/47/23 69/47/23
f 84/48/24 137/49/24 85/49/24
f 69/47/25 160/50/25 70/50/25
f 75/5/26 128/36/26 76/36/26
f 104/15/27 47/51/27 105/51/27
f 59/52/28 15/53/28 60/53/28
f 94/54/29 123/45/29 95/45/29
f 52/55/30 147/56/30 53/56/30
f 63/57/31 9/58/31 64/58/31
f 30/9/32 163/39/32 31/39/32
f 22/17/33 87/18/33 23/18/33
f 56/59/34 45/32/34 57/32/34
f 105/51/35 49/43/35 106/43/35
f 71/60/36 156/61/36 72/61/36
f 24/62/37 20/63/37 25/63/37
f 99/3/3 1/29/3 33/64/3
f 62/65/38 11/57/38 63/57/38
f 72/61/39 153/66/39 73/66/39
f 62/65/3 92/67/3 93/30/3
f 23/18/40 34/62/40 24/62/40
f 97/68/41 144/69/41 172/69/41
f 21/27/42 66/17/42 22/17/42
f 25/63/43 38/70/43 26/70/43
f 116/71/41 171/71/41 142/72/41
f 83/7/44 135/48/44 84/48/44
f 107/44/45 18/73/45 108/73/45
f 1/29/46 8/74/46 2/74/46
f 51/42/47 148/55/47 52/55/47
f 55/23/48 44/59/48 56/59/48
f 108/73/49 19/75/49 109/75/49
f 77/37/50 124/26/50 78/26/50
f 33/64/51 141/71/51 171/71/51
f 85/49/52 138/24/52 86/24/52
f 57/32/53 48/76/53 58/76/53
f 80/77/54 122/78/54 81/78/54
f 98/72/55 167/3/55 99/3/55
f 86/24/56 143/79/56 169/79/56
f 102/80/57 39/14/57 103/14/57
f 92/67/58 42/30/58 93/30/58
f 60/53/59 14/31/59 61/31/59
f 2/74/60 35/19/60 3/19/60
f 96/46/61 129/68/61 97/68/61
f 91/21/62 43/67/62 92/67/62
f 73/66/63 154/81/63 74/81/63
f 61/31/64 13/65/64 62/65/64
f 6/28/65 16/41/65 7/41/65
f 65/82/66 140/12/66 67/12/66
f 81/78/67 130/25/67 82/25/67
f 79/6/68 121/77/68 80/77/68
f 109/75/69 112/83/69 5/83/69
f 70/50/70 158/60/70 71/60/70
f 78/26/71 120/6/71 79/6/71
f 100/4/72 161/84/72 101/84/72
f 111/79/73 169/79/73 131/5/73
f 26/70/74 125/10/74 27/10/74
f 82/25/75 133/7/75 83/7/75
f 58/76/76 12/52/76 59/52/76
f 64/58/77 40/82/77 65/82/77
f 74/81/73 168/16/73 170/16/73
f 53/56/78 146/22/78 54/22/78
f 115/69/79 172/69/79 145/33/79
f 101/84/80 139/80/80 102/80/80
f 5/83/81 117/28/81 6/28/81
f 32/40/82 165/64/82 33/64/82
f 89/2/83 119/20/83 90/20/83
f 93/30/84 118/54/84 94/54/84
f 172/69/41 116/71/41 115/69/41
f 169/79/85 113/16/85 111/79/85
f 88/1/1 136/1/1 134/2/1
f 99/3/2 167/3/2 166/4/2
f 86/24/3 111/79/3 75/5/3
f 75/5/3 76/36/3 77/37/3
f 77/37/3 78/26/3 79/6/3
f 79/6/3 80/77/3 81/78/3
f 81/78/3 82/25/3 83/7/3
f 83/7/3 84/48/3 85/49/3
f 85/49/3 86/24/3 75/5/3
f 75/5/3 77/37/3 79/6/3
f 79/6/3 81/78/3 83/7/3
f 83/7/3 85/49/3 75/5/3
f 29/8/4 155/8/4 162/9/4
f 27/10/5 125/10/5 149/11/5
f 67/12/6 140/12/6 157/13/6
f 103/14/7 39/14/7 46/15/7
f 136/1/8 88/1/8 113/16/8
f 170/16/8 168/16/8 136/1/8
f 1/29/3 103/14/3 104/15/3
f 104/15/3 105/51/3 106/43/3
f 1/29/3 104/15/3 106/43/3
f 30/9/3 31/39/3 2/74/3
f 29/8/3 30/9/3 2/74/3
f 1/29/3 106/43/3 107/44/3
f 1/29/3 107/44/3 108/73/3
f 28/11/3 29/8/3 2/74/3
f 27/10/3 28/11/3 2/74/3
f 4/35/3 1/29/3 108/73/3
f 4/35/3 108/73/3 109/75/3
f 27/10/3 2/74/3 3/19/3
f 26/70/3 27/10/3 3/19/3
f 4/35/3 109/75/3 5/83/3
f 6/28/3 7/41/3 21/27/3
f 4/35/3 5/83/3 6/28/3
f 25/63/3 26/70/3 3/19/3
f 24/62/3 25/63/3 3/19/3
f 3/19/3 4/35/3 6/28/3
f 3/19/3 6/28/3 21/27/3
f 23/18/3 24/62/3 3/19/3
f 3/19/3 21/27/3 22/17/3
f 90/20/9 119/20/9 41/21/9
f 54/22/10 146/22/10 132/23/10
f 131/5/11 143/79/11 138/24/11
f 138/24/11 137/49/11 135/48/11
f 135/48/11 133/7/11 130/25/11
f 130/25/11 122/78/11 121/77/11
f 121/77/11 120/6/11 124/26/11
f 124/26/11 127/37/11 128/36/11
f 128/36/11 131/5/11 138/24/11
f 138/24/11 135/48/11 130/25/11
f 130/25/11 121/77/11 124/26/11
f 124/26/11 128/36/11 138/24/11
f 8/74/11 163/39/11 162/9/11
f 8/74/11 162/9/11 155/8/11
f 46/15/11 39/14/11 17/29/11
f 49/43/11 47/51/11 46/15/11
f 49/43/11 46/15/11 17/29/11
f 8/74/11 155/8/11 149/11/11
f 8/74/11 149/11/11 125/10/11
f 10/44/11 49/43/11 17/29/11
f 18/73/11 10/44/11 17/29/11
f 35/19/11 8/74/11 125/10/11
f 35/19/11 125/10/11 38/70/11
f 18/73/11 17/29/11 110/35/11
f 19/75/11 18/73/11 110/35/11
f 35/19/11 38/70/11 20/63/11
f 35/19/11 20/63/11 34/62/11
f 112/83/11 19/75/11 110/35/11
f 114/27/11 16/41/11 117/28/11
f 117/28/11 112/83/11 110/35/11
f 35/19/11 34/62/11 87/18/11
f 35/19/11 87/18/11 66/17/11
f 117/28/11 110/35/11 35/19/11
f 35/19/11 66/17/11 114/27/11
f 142/72/11 141/71/11 165/64/11
f 164/40/11 163/39/11 8/74/11
f 142/72/11 165/64/11 164/40/11
f 167/3/11 142/72/11 164/40/11
f 164/40/11 8/74/11 17/29/11
f 17/29/11 39/14/11 139/80/11
f 17/29/11 139/80/11 161/84/11
f 167/3/11 164/40/11 17/29/11
f 17/29/11 161/84/11 166/4/11
f 136/1/11 168/16/11 154/81/11
f 153/66/11 156/61/11 158/60/11
f 136/1/11 154/81/11 153/66/11
f 134/2/11 136/1/11 153/66/11
f 153/66/11 158/60/11 160/50/11
f 160/50/11 159/47/11 157/13/11
f 157/13/11 140/12/11 40/82/11
f 40/82/11 9/58/11 11/57/11
f 11/57/11 13/65/11 14/31/11
f 14/31/11 15/53/11 12/52/11
f 12/52/11 48/76/11 45/32/11
f 45/32/11 44/59/11 132/23/11
f 132/23/11 146/22/11 147/56/11
f 147/56/11 148/55/11 150/42/11
f 150/42/11 152/38/11 151/34/11
f 151/34/11 145/33/11 144/69/11
f 151/34/11 144/69/11 129/68/11
f 147/56/11 150/42/11 151/34/11
f 45/32/11 132/23/11 147/56/11
f 14/31/11 12/52/11 45/32/11
f 40/82/11 11/57/11 14/31/11
f 160/50/11 157/13/11 40/82/11
f 134/2/11 153/66/11 160/50/11
f 134/2/11 160/50/11 40/82/11
f 45/32/11 147/56/11 151/34/11
f 151/34/11 129/68/11 126/46/11
f 45/32/11 151/34/11 126/46/11
f 134/2/11 40/82/11 14/31/11
f 119/20/11 134/2/11 14/31/11
f 45/32/11 126/46/11 123/45/11
f 45/32/11 123/45/11 118/54/11
f 41/21/11 119/20/11 14/31/11
f 43/67/11 41/21/11 14/31/11
f 45/32/11 118/54/11 42/30/11
f 42/30/11 43/67/11 14/31/11
f 36/33/12 145/33/12 151/34/12
f 4/35/13 110/35/13 17/29/13
f 76/36/14 128/36/14 127/37/14
f 37/34/15 151/34/15 152/38/15
f 31/39/16 163/39/16 164/40/16
f 7/41/17 16/41/17 114/27/17
f 50/38/18 152/38/18 150/42/18
f 28/11/19 149/11/19 155/8/19
f 3/19/20 35/19/20 110/35/20
f 106/43/21 49/43/21 10/44/21
f 95/45/22 123/45/22 126/46/22
f 68/13/23 157/13/23 159/47/23
f 84/48/24 135/48/24 137/49/24
f 69/47/25 159/47/25 160/50/25
f 75/5/26 131/5/26 128/36/26
f 104/15/27 46/15/27 47/51/27
f 59/52/28 12/52/28 15/53/28
f 94/54/29 118/54/29 123/45/29
f 52/55/30 148/55/30 147/56/30
f 63/57/31 11/57/31 9/58/31
f 30/9/32 162/9/32 163/39/32
f 22/17/33 66/17/33 87/18/33
f 56/59/34 44/59/34 45/32/34
f 105/51/35 47/51/35 49/43/35
f 71/60/36 158/60/36 156/61/36
f 24/62/37 34/62/37 20/63/37
f 102/80/3 103/14/3 1/29/3
f 1/29/3 2/74/3 31/39/3
f 1/29/3 31/39/3 32/40/3
f 101/84/3 102/80/3 1/29/3
f 100/4/3 101/84/3 1/29/3
f 1/29/3 32/40/3 33/64/3
f 33/64/3 116/71/3 98/72/3
f 99/3/3 100/4/3 1/29/3
f 33/64/3 98/72/3 99/3/3
f 62/65/38 13/65/38 11/57/38
f 72/61/39 156/61/39 153/66/39
f 97/68/3 115/69/3 36/33/3
f 36/33/3 37/34/3 50/38/3
f 50/38/3 51/42/3 52/55/3
f 52/55/3 53/56/3 54/22/3
f 54/22/3 55/23/3 56/59/3
f 56/59/3 57/32/3 58/76/3
f 58/76/3 59/52/3 60/53/3
f 60/53/3 61/31/3 62/65/3
f 62/65/3 63/57/3 64/58/3
f 65/82/3 67/12/3 68/13/3
f 62/65/3 64/58/3 65/82/3
f 58/76/3 60/53/3 62/65/3
f 54/22/3 56/59/3 58/76/3
f 50/38/3 52/55/3 54/22/3
f 97/68/3 36/33/3 50/38/3
f 96/46/3 97/68/3 50/38/3
f 50/38/3 54/22/3 58/76/3
f 65/82/3 68/13/3 69/47/3
f 69/47/3 70/50/3 71/60/3
f 71/60/3 72/61/3 73/66/3
f 74/81/3 113/16/3 88/1/3
f 69/47/3 71/60/3 73/66/3
f 73/66/3 74/81/3 88/1/3
f 73/66/3 88/1/3 89/2/3
f 65/82/3 69/47/3 73/66/3
f 96/46/3 50/38/3 58/76/3
f 95/45/3 96/46/3 58/76/3
f 65/82/3 73/66/3 89/2/3
f 65/82/3 89/2/3 90/20/3
f 94/54/3 95/45/3 58/76/3
f 93/30/3 94/54/3 58/76/3
f 62/65/3 65/82/3 90/20/3
f 62/65/3 90/20/3 91/21/3
f 93/30/3 58/76/3 62/65/3
f 62/65/3 91/21/3 92/67/3
f 23/18/40 87/18/40 34/62/40
f 172/69/41 115/69/41 97/68/41
f 97/68/41 129/68/41 144/69/41
f 21/27/42 114/27/42 66/17/42
f 25/63/43 20/63/43 38/70/43
f 142/72/41 98/72/41 116/71/41
f 171/71/41 141/71/41 142/72/41
f 83/7/44 133/7/44 135/48/44
f 107/44/45 10/44/45 18/73/45
f 1/29/46 17/29/46 8/74/46
f 51/42/47 150/42/47 148/55/47
f 55/23/48 132/23/48 44/59/48
f 108/73/49 18/73/49 19/75/49
f 77/37/50 127/37/50 124/26/50
f 171/71/51 116/71/51 33/64/51
f 33/64/51 165/64/51 141/71/51
f 85/49/52 137/49/52 138/24/52
f 57/32/53 45/32/53 48/76/53
f 80/77/54 121/77/54 122/78/54
f 98/72/55 142/72/55 167/3/55
f 169/79/56 111/79/56 86/24/56
f 86/24/56 138/24/56 143/79/56
f 102/80/57 139/80/57 39/14/57
f 92/67/58 43/67/58 42/30/58
f 60/53/59 15/53/59 14/31/59
f 2/74/60 8/74/60 35/19/60
f 96/46/61 126/46/61 129/68/61
f 91/21/62 41/21/62 43/67/62
f 73/66/63 153/66/63 154/81/63
f 61/31/86 14/31/86 13/65/86
f 6/28/65 117/28/65 16/41/65
f 65/82/66 40/82/66 140/12/66
f 81/78/67 122/78/67 130/25/67
f 79/6/68 120/6/68 121/77/68
f 109/75/69 19/75/69 112/83/69
f 70/50/70 160/50/70 158/60/70
f 78/26/71 124/26/71 120/6/71
f 100/4/72 166/4/72 161/84/72
f 131/5/73 75/5/73 111/79/73
f 169/79/73 143/79/73 131/5/73
f 26/70/74 38/70/74 125/10/74
f 82/25/75 130/25/75 133/7/75
f 58/76/76 48/76/76 12/52/76
f 64/58/77 9/58/77 40/82/77
f 170/16/73 113/16/73 74/81/73
f 74/81/73 154/81/73 168/16/73
f 53/56/78 147/56/78 146/22/78
f 145/33/79 36/33/79 115/69/79
f 172/69/79 144/69/79 145/33/79
f 101/84/80 161/84/80 139/80/80
f 5/83/81 112/83/81 117/28/81
f 32/40/82 164/40/82 165/64/82
f 89/2/83 134/2/83 119/20/83
f 93/30/84 42/30/84 118/54/84
f 172/69/41 171/71/41 116/71/41
f 169/79/85 170/16/85 113/16/85
