# Blender 5.1.0
# www.blender.org
o Curve
v -16.938375 1.000000 -11.880781
v -17.198864 1.000000 -11.528658
v -17.314064 1.000000 -11.172772
v -17.314854 1.000000 -6.993477
v -17.133406 1.000000 -6.503802
v -16.693068 1.000000 -6.116801
v -16.270102 1.000000 -6.009394
v -10.325303 1.000000 -6.008414
v -10.054995 1.000000 -5.939637
v -9.772250 1.000000 -5.691144
v -9.667960 1.000000 -5.427514
v -9.661425 1.000000 -5.134986
v -9.859681 1.000000 -4.758255
v -10.189548 1.000000 -4.575034
v -10.382748 1.000000 -4.553483
v -16.182632 1.000000 -4.553483
v -16.336451 1.000000 -4.543137
v -16.483980 1.000000 -4.512999
v -16.756519 1.000000 -4.404961
v -17.133410 1.000000 -4.058593
v -17.314854 1.000000 -3.568925
v -17.323463 1.000000 9.526150
v -17.272039 1.000000 10.361758
v -17.043110 1.000000 11.147426
v -16.552246 1.000000 11.875301
v -15.715850 1.000000 12.380323
v -14.755898 1.000000 12.505703
v -14.092553 1.000000 12.442890
v -13.322286 1.000000 12.165005
v -12.657036 1.000000 11.529487
v -12.292507 1.000000 10.750023
v -12.128198 1.000000 9.794698
v -12.133290 1.000000 4.610227
v -11.896676 1.000000 3.399843
v -11.232892 1.000000 2.533546
v -10.211026 1.000000 1.968279
v -8.900165 1.000000 1.660986
v -7.369396 1.000000 1.568612
v -5.067841 1.000000 1.696831
v -1.696535 1.000000 2.230720
v 3.960183 1.000000 3.387460
v 4.308695 1.000000 3.560270
v 4.687897 1.000000 3.965597
v 6.749517 1.000000 9.886262
v 7.056259 1.000000 10.254190
v 7.554215 1.000000 10.489785
v 12.258945 1.000000 10.490686
v 12.678959 1.000000 10.343890
v 13.055959 1.000000 9.999775
v 14.754210 1.000000 6.183513
v 15.131646 1.000000 4.814872
v 15.282168 1.000000 3.580510
v 15.278450 1.000000 -1.791658
v 15.163243 1.000000 -2.097641
v 15.088444 1.000000 -2.228133
v 14.994123 1.000000 -2.345843
v 14.941413 1.000000 -2.400782
v 13.421225 1.000000 -3.882547
v 13.272578 1.000000 -4.055725
v 13.114409 1.000000 -4.388008
v 13.085528 1.000000 -4.897804
v 13.290790 1.000000 -5.366439
v 15.054823 1.000000 -7.195653
v 15.269756 1.000000 -7.641733
v 15.244698 1.000000 -8.465056
v 15.058017 1.000000 -9.286919
v 14.563153 1.000000 -10.275182
v 13.839252 1.000000 -11.097779
v 12.928257 1.000000 -11.712170
v 12.149530 1.000000 -12.001522
v 11.344078 1.000000 -12.152169
v -16.396395 1.000000 -12.149466
v 11.601221 1.000000 -10.262858
v 12.033689 1.000000 -9.971181
v 12.377338 1.000000 -9.580661
v 12.659373 1.000000 -8.984195
v 12.708306 1.000000 -8.254123
v 12.539117 1.000000 -7.906052
v 10.070882 1.000000 -5.388741
v 9.902143 1.000000 -5.050588
v 9.842000 1.000000 -4.615355
v 10.045033 1.000000 -4.039347
v 12.472616 1.000000 -1.673945
v 12.714218 1.000000 -1.186541
v 12.717567 1.000000 1.172352
v 12.581511 1.000000 1.731091
v 12.284476 1.000000 2.229934
v 11.859371 1.000000 2.617216
v 11.339216 1.000000 2.866399
v 10.606127 1.000000 2.957971
v 8.071815 1.000000 2.348108
v 4.598934 1.000000 1.287394
v -0.478898 1.000000 0.139840
v -4.049825 1.000000 -0.363879
v -6.369936 1.000000 -0.536391
v -8.507225 1.000000 -0.533262
v -10.398231 1.000000 -0.332059
v -11.979486 1.000000 0.089654
v -13.187531 1.000000 0.754310
v -13.958898 1.000000 1.684344
v -14.230118 1.000000 2.902187
v -14.233472 1.000000 8.964418
v -14.453154 1.000000 9.264895
v -14.784044 1.000000 9.309160
v -14.998876 1.000000 9.202146
v -15.149255 1.000000 8.964417
v -15.150378 1.000000 -1.370114
v -14.942401 1.000000 -1.790799
v -14.487630 1.000000 -2.077281
v -8.095536 1.000000 -2.083555
v -7.739573 1.000000 -2.198728
v -7.387372 1.000000 -2.459162
v -7.117020 1.000000 -3.005966
v -7.118636 1.000000 -7.866892
v -7.387373 1.000000 -8.408753
v -7.874814 1.000000 -8.736584
v -8.247690 1.000000 -8.786508
v -11.513618 1.000000 -8.786508
v -11.790999 1.000000 -8.823645
v -12.153583 1.000000 -9.067501
v -12.331869 1.000000 -9.405785
v -12.349255 1.000000 -9.798929
v -12.153582 1.000000 -10.191608
v -11.718883 1.000000 -10.466496
v 10.958794 1.000000 -10.470217
v -17.198864 2.838431 -11.528658
v -17.314064 2.838431 -11.172772
v -16.938375 2.838431 -11.880781
v -16.396395 2.838431 -12.149466
v 11.344078 2.838431 -12.152169
v 12.149530 2.838431 -12.001522
v 12.928257 2.838431 -11.712170
v 13.839252 2.838431 -11.097779
v 14.563153 2.838431 -10.275182
v 15.058017 2.838431 -9.286919
v 15.244698 2.838431 -8.465056
v 10.958794 2.838431 -10.470217
v -11.718883 2.838431 -10.466496
v 11.601221 2.838431 -10.262858
v -12.153582 2.838431 -10.191608
v 12.033689 2.838431 -9.971181
v -12.349255 2.838431 -9.798929
v -17.314854 2.838431 -6.993477
v 12.377338 2.838431 -9.580661
v -12.331869 2.838431 -9.405785
v 12.659373 2.838431 -8.984195
v -12.153583 2.838431 -9.067501
v -11.790999 2.838431 -8.823645
v -11.513618 2.838431 -8.786508
v -8.247690 2.838431 -8.786508
v -7.874814 2.838431 -8.736584
v 12.708306 2.838431 -8.254123
v -7.387373 2.838431 -8.408753
v 15.269756 2.838431 -7.641733
v -7.118636 2.838431 -7.866892
v 12.539117 2.838431 -7.906052
v 15.054823 2.838431 -7.195653
v 10.070882 2.838431 -5.388741
v -17.133406 2.838431 -6.503802
v -7.117020 2.838431 -3.005966
v -16.693068 2.838431 -6.116801
v -17.133410 2.838431 -4.058593
v -17.314854 2.838431 -3.568925
v -16.270102 2.838431 -6.009394
v -16.756519 2.838431 -4.404961
v -16.483980 2.838431 -4.512999
v -10.325303 2.838431 -6.008414
v -10.054995 2.838431 -5.939637
v -16.336451 2.838431 -4.543137
v -9.772250 2.838431 -5.691144
v 13.290790 2.838431 -5.366439
v 15.278450 2.838431 -1.791658
v 15.163243 2.838431 -2.097641
v -9.667960 2.838431 -5.427514
v 15.088444 2.838431 -2.228133
v -9.661425 2.838431 -5.134986
v 9.902143 2.838431 -5.050588
v 13.085528 2.838431 -4.897804
v -16.182632 2.838431 -4.553483
v -9.859681 2.838431 -4.758255
v 9.842000 2.838431 -4.615355
v 13.114409 2.838431 -4.388008
v 14.994123 2.838431 -2.345843
v -10.189548 2.838431 -4.575034
v -10.382748 2.838431 -4.553483
v 10.045033 2.838431 -4.039347
v 13.272578 2.838431 -4.055725
v 14.941413 2.838431 -2.400782
v 13.421225 2.838431 -3.882547
v 12.472616 2.838431 -1.673945
v -7.387372 2.838431 -2.459162
v -7.739573 2.838431 -2.198728
v -8.095536 2.838431 -2.083555
v -14.487630 2.838431 -2.077281
v -14.942401 2.838431 -1.790799
v -15.150378 2.838431 -1.370114
v 12.714218 2.838431 -1.186541
v -6.369936 2.838431 -0.536391
v -8.507225 2.838431 -0.533262
v -4.049825 2.838431 -0.363879
v -10.398231 2.838431 -0.332059
v -0.478898 2.838431 0.139840
v 15.282168 2.838431 3.580510
v -11.979486 2.838431 0.089654
v -13.187531 2.838431 0.754310
v 12.717567 2.838431 1.172352
v 4.598934 2.838431 1.287394
v -13.958898 2.838431 1.684344
v 12.581511 2.838431 1.731091
v -8.900165 2.838431 1.660986
v -7.369396 2.838431 1.568612
v -5.067841 2.838431 1.696831
v 8.071815 2.838431 2.348108
v -10.211026 2.838431 1.968279
v -14.230118 2.838431 2.902187
v -1.696535 2.838431 2.230720
v 12.284476 2.838431 2.229934
v -11.232892 2.838431 2.533546
v 11.859371 2.838431 2.617216
v 3.960183 2.838431 3.387460
v -11.896676 2.838431 3.399843
v 11.339216 2.838431 2.866399
v 10.606127 2.838431 2.957971
v -12.133290 2.838431 4.610227
v 4.308695 2.838431 3.560270
v 4.687897 2.838431 3.965597
v 15.131646 2.838431 4.814872
v -17.323463 2.838431 9.526150
v -15.149255 2.838431 8.964417
v 14.754210 2.838431 6.183513
v -12.128198 2.838431 9.794698
v -14.233472 2.838431 8.964418
v 6.749517 2.838431 9.886262
v 13.055959 2.838431 9.999775
v -14.998876 2.838431 9.202146
v -14.453154 2.838431 9.264895
v -14.784044 2.838431 9.309160
v -17.272039 2.838431 10.361758
v 7.056259 2.838431 10.254190
v -12.292507 2.838431 10.750023
v 12.678959 2.838431 10.343890
v 7.554215 2.838431 10.489785
v 12.258945 2.838431 10.490686
v -17.043110 2.838431 11.147426
v -12.657036 2.838431 11.529487
v -16.552246 2.838431 11.875301
v -13.322286 2.838431 12.165005
v -15.715850 2.838431 12.380323
v -14.092553 2.838431 12.442890
v -14.755898 2.838431 12.505703
v -6.369936 1.000000 -0.536391
v -8.507225 1.000000 -0.533262
v -10.398231 1.000000 -0.332059
v -6.369936 2.838431 -0.536391
v -8.507225 2.838431 -0.533262
v -10.398231 2.838431 -0.332059
vn 0.8849 -0.0000 0.4657
vn 0.8039 -0.0000 0.5947
vn -1.0000 -0.0000 0.0010
vn 0.9906 -0.0000 0.1369
vn 0.4442 -0.0000 0.8959
vn 1.0000 -0.0000 0.0006
vn -0.9984 -0.0000 0.0566
vn 0.9444 -0.0000 -0.3288
vn -0.7804 -0.0000 0.6253
vn 0.0001 -0.0000 1.0000
vn 0.4856 -0.0000 0.8742
vn -0.1838 -0.0000 0.9830
vn -0.9136 -0.0000 -0.4066
vn 0.1109 -0.0000 0.9938
vn -0.3483 -0.0000 0.9374
vn -0.8451 -0.0000 0.5346
vn -0.0000 -0.0000 1.0000
vn -0.5591 -0.0000 0.8291
vn 0.8073 -0.0000 0.5902
vn 0.9431 -0.0000 -0.3324
vn -0.7507 -0.0000 0.6606
vn -0.4459 -0.0000 0.8951
vn -0.9029 -0.0000 0.4298
vn -0.8942 -0.0000 0.4477
vn 0.1326 -0.0000 0.9912
vn -0.7216 -0.0000 0.6923
vn -0.9752 -0.0000 0.2215
vn 0.9981 -0.0000 -0.0614
vn -0.7588 -0.0000 0.6513
vn 0.7681 -0.0000 -0.6404
vn -0.6980 -0.0000 0.7161
vn -0.0002 -0.0000 -1.0000
vn -0.9855 -0.0000 -0.1695
vn 0.6979 -0.0000 -0.7162
vn 0.3072 -0.0000 -0.9517
vn -0.6742 -0.0000 -0.7386
vn -0.8964 -0.0000 -0.4432
vn -0.5345 -0.0000 -0.8452
vn 0.4277 -0.0000 -0.9039
vn -0.5946 -0.0000 -0.8041
vn 0.5592 -0.0000 -0.8291
vn -0.3299 -0.0000 -0.9440
vn -0.3078 -0.0000 -0.9514
vn -0.8950 -0.0000 -0.4460
vn 0.0002 -0.0000 -1.0000
vn -0.0010 -0.0000 -1.0000
vn 1.0000 -0.0000 0.0002
vn 0.9601 -0.0000 -0.2798
vn -0.5330 -0.0000 -0.8461
vn 0.7507 -0.0000 -0.6606
vn -0.9058 -0.0000 -0.4236
vn -0.9990 -0.0000 0.0442
vn 0.8960 -0.0000 -0.4441
vn 0.9040 -0.0000 -0.4275
vn 0.8291 -0.0000 -0.5591
vn -0.0000 1.0000 -0.0000
vn -0.8847 -0.0000 0.4662
vn -0.6908 -0.0000 -0.7231
vn -0.0742 -0.0000 0.9972
vn -0.5581 -0.0000 0.8298
vn 0.5169 -0.0000 -0.8561
vn -0.1327 -0.0000 0.9912
vn -0.3394 -0.0000 -0.9407
vn -0.1397 -0.0000 0.9902
vn 0.1295 -0.0000 -0.9916
vn -1.0000 -0.0000 0.0007
vn -0.0943 -0.0000 -0.9955
vn 0.2577 -0.0000 0.9662
vn 0.9978 -0.0000 -0.0669
vn 0.4820 -0.0000 0.8761
vn 1.0000 -0.0000 -0.0014
vn -0.9995 -0.0000 0.0304
vn -0.2204 -0.0000 0.9754
vn -0.8959 -0.0000 0.4443
vn 0.7697 -0.0000 0.6384
vn 0.8994 -0.0000 0.4372
vn 0.9716 -0.0000 0.2366
vn -0.9009 -0.0000 -0.4341
vn -0.0602 -0.0000 -0.9982
vn 0.7140 -0.0000 0.7001
vn 0.0556 -0.0000 -0.9985
vn 0.9377 -0.0000 -0.3475
vn -0.2921 -0.0000 0.9564
vn -1.0000 -0.0000 0.0003
vn -0.2282 -0.0000 -0.9736
vn 0.6602 -0.0000 -0.7511
vn 0.9761 -0.0000 0.2174
vn 0.9377 -0.0000 0.3475
vn 0.1564 -0.0000 -0.9877
vn 0.2461 -0.0000 -0.9692
vn 0.8592 -0.0000 0.5116
vn 0.6767 -0.0000 0.7363
vn -0.4840 -0.0000 -0.8750
vn 0.3685 -0.0000 0.9296
vn 0.6735 -0.0000 0.7392
vn 0.2003 -0.0000 -0.9797
vn 0.2466 -0.0000 -0.9691
vn -0.7938 -0.0000 -0.6082
vn 0.2001 -0.0000 0.9798
vn 0.4320 -0.0000 0.9019
vn 0.6601 -0.0000 -0.7511
vn -0.2340 -0.0000 0.9722
vn -0.7198 -0.0000 -0.6942
vn 0.1240 -0.0000 0.9923
vn -0.9359 -0.0000 0.3524
vn -0.9814 -0.0000 -0.1919
vn 0.9299 -0.0000 -0.3679
vn 0.4442 -0.0000 -0.8959
vn -0.8676 -0.0000 0.4973
vn 0.7302 -0.0000 -0.6832
vn 0.9998 -0.0000 -0.0223
vn -0.9926 -0.0000 -0.1210
vn 0.8948 -0.0000 0.4465
vn 1.0000 -0.0000 0.0007
vn -0.9160 -0.0000 -0.4012
vn -1.0000 -0.0000 0.0001
vn 0.0671 -0.0000 0.9977
vn 0.9514 -0.0000 0.3080
vn -0.9640 -0.0000 -0.2659
vn 0.0015 -0.0000 1.0000
vn 0.1058 -0.0000 0.9944
vn 0.9601 -0.0000 -0.2797
vn 0.1239 -0.0000 0.9923
vt 0.106490 0.000000
vt 0.113816 0.000000
vt 0.015441 0.000000
vt 0.020334 0.000000
vt 0.216805 0.000000
vt 0.240650 0.000000
vt 0.617065 0.000000
vt 0.621958 0.000000
vt 0.008766 0.000000
vt 0.747967 0.000000
vt 0.770389 0.000000
vt 0.461776 0.000000
vt 0.467498 0.000000
vt 0.276847 0.000000
vt 0.301430 0.000000
vt 0.430899 0.000000
vt 0.434146 0.000000
vt 0.532413 0.000000
vt 0.120339 0.000000
vt 0.530081 0.000000
vt 0.354827 0.000000
vt 0.380134 0.000000
vt 0.123577 0.000000
vt 0.527651 0.000000
vt 0.795928 0.000000
vt 0.803595 0.000000
vt 0.143089 0.000000
vt 0.524392 0.000000
vt 0.780522 0.000000
vt 0.628674 0.000000
vt 0.521132 0.000000
vt 0.789417 0.000000
vt 0.457716 0.000000
vt 0.517877 0.000000
vt 0.435772 0.000000
vt 0.515447 0.000000
vt 0.184374 0.000000
vt 0.189574 0.000000
vt 0.455284 0.000000
vt 0.308127 0.000000
vt 0.979205 0.000000
vt 0.554414 0.000000
vt 0.212052 0.000000
vt 0.653318 0.000000
vt 0.558528 0.000000
vt 0.347152 0.000000
vt 0.875616 0.000000
vt 0.882346 0.000000
vt 0.971538 0.000000
vt 0.315851 0.000000
vt 0.870723 0.000000
vt 0.561787 0.000000
vt 0.340481 0.000000
vt 0.866646 0.000000
vt 0.965026 0.000000
vt 0.842698 0.000000
vt 0.024411 0.000000
vt 0.047097 0.000000
vt 0.192822 0.000000
vt 0.834953 0.000000
vt 0.565047 0.000000
vt 0.208827 0.000000
vt 0.828223 0.000000
vt 0.959363 0.000000
vt 0.665058 0.000000
vt 0.569119 0.000000
vt 0.196008 0.000000
vt 0.738211 0.000000
vt 0.739837 0.000000
vt 0.953665 0.000000
vt 0.205678 0.000000
vt 0.736585 0.000000
vt 0.947129 0.000000
vt 0.199130 0.000000
vt 0.741463 0.000000
vt 0.943089 0.000000
vt 0.203252 0.000000
vt 0.734225 0.000000
vt 0.923577 0.000000
vt 0.201626 0.000000
vt 0.394522 0.000000
vt 0.420585 0.000000
vt 0.919538 0.000000
vt 0.743089 0.000000
vt 0.577840 0.000000
vt 0.744715 0.000000
vt 0.913002 0.000000
vt 0.690375 0.000000
vt 0.508343 0.000000
vt 0.730887 0.000000
vt 0.906327 0.000000
vt 0.746341 0.000000
vt 0.588957 0.000000
vt 0.693484 0.000000
vt 0.497152 0.000000
vt 0.247154 0.000000
vt 0.248780 0.000000
vt 0.612960 0.000000
vt 0.250976 0.000000
vt 0.052827 0.000000
vt 0.728455 0.000000
vt 0.245528 0.000000
vt 0.059375 0.000000
vt 0.155303 0.000000
vt 0.161033 0.000000
vt 0.254084 0.000000
vt 0.064120 0.000000
vt 0.696739 0.000000
vt 0.149581 0.000000
vt 0.243902 0.000000
vt 0.146341 0.000000
vt 0.700003 0.000000
vt 0.085495 0.000000
vt 0.263246 0.000000
vt 0.090219 0.000000
vt 0.242276 0.000000
vt 0.144715 0.000000
vt 0.703264 0.000000
vt 0.096766 0.000000
vt 0.707314 0.000000
vt 0.473128 0.000000
vt 0.427642 0.000000
vt 0.101633 0.000000
vt 0.269155 0.000000
vt 0.387805 0.000000
s 0
f 12/1/1 180/2/1 13/2/1
f 1/3/2 126/4/2 2/4/2
f 32/5/3 224/6/3 33/6/3
f 80/7/4 181/8/4 81/8/4
f 72/9/5 128/3/5 1/3/5
f 101/10/6 232/11/6 102/11/6
f 60/12/7 178/13/7 61/13/7
f 43/14/8 233/15/8 44/15/8
f 55/16/9 183/17/9 56/17/9
f 71/18/10 129/9/10 72/9/10
f 13/2/11 184/19/11 14/19/11
f 70/20/12 130/18/12 71/18/12
f 49/21/13 230/22/13 50/22/13
f 14/19/14 185/23/14 15/23/14
f 69/24/15 131/20/15 70/20/15
f 105/25/16 229/26/16 106/26/16
f 15/23/17 179/27/17 16/27/17
f 68/28/18 132/24/18 69/24/18
f 102/11/19 236/29/19 103/29/19
f 81/8/20 186/30/20 82/30/20
f 67/31/21 133/28/21 68/28/21
f 104/32/22 235/25/22 105/25/22
f 59/33/23 182/12/23 60/12/23
f 66/34/24 134/31/24 67/31/24
f 103/29/25 237/32/25 104/32/25
f 56/17/26 188/35/26 57/35/26
f 65/36/27 135/34/27 66/34/27
f 22/37/28 238/38/28 23/38/28
f 58/39/29 187/33/29 59/33/29
f 44/15/30 239/40/30 45/40/30
f 57/35/31 189/39/31 58/39/31
f 124/41/32 137/42/32 125/42/32
f 31/43/33 231/5/33 32/5/33
f 82/30/34 190/44/34 83/44/34
f 125/42/35 139/45/35 73/45/35
f 48/46/36 234/21/36 49/21/36
f 112/47/37 160/48/37 113/48/37
f 123/49/38 138/41/38 124/41/38
f 45/40/39 242/50/39 46/50/39
f 111/51/40 191/47/40 112/47/40
f 73/45/41 141/52/41 74/52/41
f 47/53/42 241/46/42 48/46/42
f 110/54/43 192/51/43 111/51/43
f 122/55/44 140/49/44 123/49/44
f 46/50/45 243/53/45 47/53/45
f 109/56/46 193/54/46 110/54/46
f 3/57/47 143/58/47 4/58/47
f 23/38/48 244/59/48 24/59/48
f 108/60/49 194/56/49 109/56/49
f 74/52/50 144/61/50 75/61/50
f 30/62/51 240/43/51 31/43/51
f 107/63/37 195/60/37 108/60/37
f 121/64/52 142/55/52 122/55/52
f 83/44/53 197/65/53 84/65/53
f 75/61/54 146/66/54 76/66/54
f 24/59/55 246/67/55 25/67/55
f 198/68/56 255/69/56 254/68/56
f 120/70/57 145/64/57 121/64/57
f 29/71/58 245/62/58 30/62/58
f 94/72/59 198/68/59 95/68/59
f 119/73/60 147/70/60 120/70/60
f 25/67/61 248/74/61 26/74/61
f 199/69/56 256/75/56 255/69/56
f 118/76/62 148/73/62 119/73/62
f 28/77/63 247/71/63 29/71/63
f 93/78/64 200/72/64 94/72/64
f 117/79/17 149/76/17 118/76/17
f 26/74/65 250/80/65 27/80/65
f 52/81/66 172/82/66 53/82/66
f 116/83/62 150/79/62 117/79/62
f 27/80/67 249/77/67 28/77/67
f 97/75/68 204/84/68 98/84/68
f 76/66/69 152/85/69 77/85/69
f 98/84/70 205/86/70 99/86/70
f 115/87/60 151/83/60 116/83/60
f 84/65/71 206/88/71 85/88/71
f 64/89/72 136/36/72 65/36/72
f 92/90/73 202/78/73 93/78/73
f 114/91/74 153/87/74 115/87/74
f 99/86/75 208/92/75 100/92/75
f 77/85/76 156/93/76 78/93/76
f 85/88/77 209/94/77 86/94/77
f 63/95/78 154/89/78 64/89/78
f 37/96/79 211/97/79 38/97/79
f 78/93/80 158/98/80 79/98/80
f 38/97/81 212/99/81 39/99/81
f 4/58/82 159/100/82 5/100/82
f 91/101/83 207/90/83 92/90/83
f 113/48/84 155/91/84 114/91/84
f 36/102/85 210/96/85 37/96/85
f 5/100/86 161/103/86 6/103/86
f 100/92/87 215/10/87 101/10/87
f 20/104/88 163/105/88 21/105/88
f 39/99/89 216/106/89 40/106/89
f 6/103/90 164/107/90 7/107/90
f 86/94/91 217/108/91 87/108/91
f 19/109/92 162/104/92 20/104/92
f 35/110/93 214/102/93 36/102/93
f 18/111/94 165/109/94 19/109/94
f 87/108/95 219/112/95 88/112/95
f 7/107/45 167/113/45 8/113/45
f 40/106/96 220/114/96 41/114/96
f 8/113/97 168/115/97 9/115/97
f 34/116/98 218/110/98 35/110/98
f 17/117/99 166/111/99 18/111/99
f 88/112/100 222/118/100 89/118/100
f 9/115/101 170/119/101 10/119/101
f 90/120/102 213/101/102 91/101/102
f 62/121/103 157/95/103 63/95/103
f 89/118/104 223/120/104 90/120/104
f 53/82/105 173/122/105 54/122/105
f 33/6/106 221/116/106 34/116/106
f 10/119/107 174/123/107 11/123/107
f 41/114/108 225/124/108 42/124/108
f 54/122/109 175/16/109 55/16/109
f 42/124/110 226/14/110 43/14/110
f 11/123/111 176/1/111 12/1/111
f 51/125/112 203/81/112 52/81/112
f 79/98/113 177/7/113 80/7/113
f 21/105/114 228/37/114 22/37/114
f 61/13/115 171/121/115 62/121/115
f 106/26/116 196/63/116 107/63/116
f 16/27/117 169/117/117 17/117/117
f 2/4/118 127/57/118 3/57/118
f 50/22/119 227/125/119 51/125/119
f 251/68/120 255/69/120 252/69/120
f 252/69/121 256/75/121 253/75/121
f 95/68/56 254/68/56 251/68/56
f 201/75/56 253/75/56 256/75/56
f 97/75/56 252/69/56 253/75/56
f 96/69/56 251/68/56 252/69/56
f 12/1/1 176/1/1 180/2/1
f 1/3/2 128/3/2 126/4/2
f 32/5/3 231/5/3 224/6/3
f 80/7/4 177/7/4 181/8/4
f 72/9/5 129/9/5 128/3/5
f 101/10/6 215/10/6 232/11/6
f 60/12/7 182/12/7 178/13/7
f 43/14/8 226/14/8 233/15/8
f 55/16/9 175/16/9 183/17/9
f 71/18/10 130/18/10 129/9/10
f 13/2/11 180/2/11 184/19/11
f 70/20/12 131/20/12 130/18/12
f 49/21/13 234/21/13 230/22/13
f 14/19/14 184/19/14 185/23/14
f 69/24/15 132/24/15 131/20/15
f 105/25/16 235/25/16 229/26/16
f 15/23/17 185/23/17 179/27/17
f 68/28/18 133/28/18 132/24/18
f 102/11/19 232/11/19 236/29/19
f 81/8/20 181/8/20 186/30/20
f 67/31/21 134/31/21 133/28/21
f 104/32/22 237/32/22 235/25/22
f 59/33/23 187/33/23 182/12/23
f 66/34/24 135/34/24 134/31/24
f 103/29/25 236/29/25 237/32/25
f 56/17/26 183/17/26 188/35/26
f 65/36/27 136/36/27 135/34/27
f 22/37/28 228/37/28 238/38/28
f 58/39/29 189/39/29 187/33/29
f 44/15/30 233/15/30 239/40/30
f 57/35/31 188/35/31 189/39/31
f 124/41/32 138/41/32 137/42/32
f 31/43/33 240/43/33 231/5/33
f 82/30/34 186/30/34 190/44/34
f 125/42/35 137/42/35 139/45/35
f 48/46/36 241/46/36 234/21/36
f 112/47/37 191/47/37 160/48/37
f 123/49/38 140/49/38 138/41/38
f 45/40/39 239/40/39 242/50/39
f 111/51/40 192/51/40 191/47/40
f 73/45/41 139/45/41 141/52/41
f 47/53/42 243/53/42 241/46/42
f 110/54/43 193/54/43 192/51/43
f 122/55/44 142/55/44 140/49/44
f 46/50/45 242/50/45 243/53/45
f 109/56/46 194/56/46 193/54/46
f 3/57/47 127/57/47 143/58/47
f 23/38/122 238/38/122 244/59/122
f 108/60/49 195/60/49 194/56/49
f 74/52/50 141/52/50 144/61/50
f 30/62/51 245/62/51 240/43/51
f 107/63/37 196/63/37 195/60/37
f 121/64/52 145/64/52 142/55/52
f 83/44/53 190/44/53 197/65/53
f 75/61/54 144/61/54 146/66/54
f 24/59/55 244/59/55 246/67/55
f 198/68/56 199/69/56 255/69/56
f 120/70/57 147/70/57 145/64/57
f 29/71/58 247/71/58 245/62/58
f 94/72/59 200/72/59 198/68/59
f 119/73/60 148/73/60 147/70/60
f 25/67/61 246/67/61 248/74/61
f 199/69/56 201/75/56 256/75/56
f 118/76/62 149/76/62 148/73/62
f 28/77/63 249/77/63 247/71/63
f 93/78/64 202/78/64 200/72/64
f 117/79/17 150/79/17 149/76/17
f 26/74/65 248/74/65 250/80/65
f 52/81/66 203/81/66 172/82/66
f 116/83/62 151/83/62 150/79/62
f 27/80/67 250/80/67 249/77/67
f 97/75/68 201/75/68 204/84/68
f 76/66/69 146/66/69 152/85/69
f 98/84/70 204/84/70 205/86/70
f 115/87/60 153/87/60 151/83/60
f 84/65/71 197/65/71 206/88/71
f 64/89/72 154/89/72 136/36/72
f 92/90/73 207/90/73 202/78/73
f 114/91/74 155/91/74 153/87/74
f 99/86/75 205/86/75 208/92/75
f 77/85/76 152/85/76 156/93/76
f 85/88/77 206/88/77 209/94/77
f 63/95/78 157/95/78 154/89/78
f 37/96/79 210/96/79 211/97/79
f 78/93/80 156/93/80 158/98/80
f 38/97/81 211/97/81 212/99/81
f 4/58/82 143/58/82 159/100/82
f 91/101/83 213/101/83 207/90/83
f 113/48/84 160/48/84 155/91/84
f 36/102/85 214/102/85 210/96/85
f 5/100/101 159/100/101 161/103/101
f 100/92/87 208/92/87 215/10/87
f 20/104/88 162/104/88 163/105/88
f 39/99/89 212/99/89 216/106/89
f 6/103/90 161/103/90 164/107/90
f 86/94/91 209/94/91 217/108/91
f 19/109/92 165/109/92 162/104/92
f 35/110/93 218/110/93 214/102/93
f 18/111/94 166/111/94 165/109/94
f 87/108/95 217/108/95 219/112/95
f 7/107/45 164/107/45 167/113/45
f 40/106/96 216/106/96 220/114/96
f 8/113/97 167/113/97 168/115/97
f 34/116/98 221/116/98 218/110/98
f 17/117/99 169/117/99 166/111/99
f 88/112/100 219/112/100 222/118/100
f 9/115/101 168/115/101 170/119/101
f 90/120/102 223/120/102 213/101/102
f 62/121/103 171/121/103 157/95/103
f 89/118/123 222/118/123 223/120/123
f 53/82/105 172/82/105 173/122/105
f 33/6/106 224/6/106 221/116/106
f 10/119/107 170/119/107 174/123/107
f 41/114/108 220/114/108 225/124/108
f 54/122/109 173/122/109 175/16/109
f 42/124/110 225/124/110 226/14/110
f 11/123/111 174/123/111 176/1/111
f 51/125/112 227/125/112 203/81/112
f 79/98/113 158/98/113 177/7/113
f 21/105/114 163/105/114 228/37/114
f 61/13/115 178/13/115 171/121/115
f 106/26/116 229/26/116 196/63/116
f 16/27/117 179/27/117 169/117/117
f 2/4/118 126/4/118 127/57/118
f 50/22/119 230/22/119 227/125/119
f 251/68/120 254/68/120 255/69/120
f 252/69/121 255/69/121 256/75/121
f 95/68/56 198/68/56 254/68/56
f 201/75/56 97/75/56 253/75/56
f 97/75/56 96/69/56 252/69/56
f 96/69/56 95/68/56 251/68/56
