# Blender 5.0.1
# www.blender.org
o track2-collision
v 9.999451 0.400970 9.997338
v -9.999451 0.400970 9.997338
v -9.999451 0.400970 -9.997338
v 9.999451 0.400970 -9.997338
v -8.683739 0.400970 -8.416195
v -8.787633 0.400970 -8.403434
v -8.884432 0.400970 -8.372762
v -8.943116 0.400970 -8.341260
v -8.996594 0.400970 -8.302364
v -9.124093 0.400970 -8.113715
v -9.172276 0.400970 -7.883518
v -8.142150 0.400970 3.447171
v 6.879689 0.400970 8.935764
v -8.057744 0.400970 3.849661
v -7.877736 0.400970 4.074381
v -6.779290 0.400970 5.127935
v 3.062819 0.400970 8.961794
v -6.404068 0.400970 5.308983
v -5.956435 0.400970 5.210721
v -4.174532 0.400970 4.235944
v -3.884953 0.400970 4.014029
v -2.388962 0.400970 0.906169
v -2.825664 0.400970 0.941502
v -2.472549 0.400970 0.867661
v -2.741306 0.400970 0.893116
v -3.729306 0.400970 3.655334
v -3.020936 0.400970 1.104282
v -2.967882 0.400970 1.022005
v -2.901751 0.400970 0.954678
v -2.560850 0.400970 0.846366
v -2.301085 0.400970 0.932630
v -2.228232 0.400970 0.998032
v -2.166776 0.400970 1.081666
v 2.240402 0.400970 8.543468
v -2.652144 0.400970 0.860575
v -4.319226 0.400970 -4.271781
v 2.517993 0.400970 8.850115
v 2.832945 0.400970 8.942443
v 7.196689 0.400970 8.847877
v 7.412393 0.400970 8.635027
v 7.444174 0.400970 8.510579
v 7.450762 0.400970 6.769380
v 7.470306 0.400970 -2.396792
v 7.490382 0.400970 -7.097642
v 7.409865 0.400970 -7.127133
v -7.242977 0.400970 -7.109791
v 7.321568 0.400970 -7.142549
v -7.176175 0.400970 -7.130778
v 7.544701 0.400970 -2.576796
v 9.389426 0.400970 -6.039615
v 9.394014 0.400970 -7.910053
v 9.296836 0.400970 -8.190426
v 9.095809 0.400970 -8.377365
v 8.971336 0.400970 -8.409139
v 2.289355 0.400970 -8.415729
v 7.665752 0.400970 -7.002758
v 7.741564 0.400970 -6.907598
v 7.777205 0.400970 -6.834580
v 7.800466 0.400970 -6.756411
v 7.810381 0.400970 -6.674713
v 7.805987 0.400970 -6.591112
v 7.786318 0.400970 -6.507231
v 5.572082 0.400970 -2.397227
v 5.091126 0.400970 6.114017
v 5.073992 0.400970 6.221215
v 5.036914 0.400970 6.316061
v 4.982834 0.400970 6.397644
v 4.914692 0.400970 6.465052
v 4.827827 0.400970 6.496100
v 4.744374 0.400970 6.535897
v 4.654323 0.400970 6.564071
v 4.560512 0.400970 6.570049
v 4.466576 0.400970 6.543275
v 4.373882 0.400970 6.492291
v 4.291128 0.400970 6.463537
v 4.216409 0.400970 6.384765
v -3.895112 0.400970 -4.183578
v -3.972220 0.400970 -4.229661
v -4.055748 0.400970 -4.258709
v -4.143220 0.400970 -4.271268
v -4.486650 0.400970 -4.205384
v -4.561665 0.400970 -4.157169
v -4.627751 0.400970 -4.095206
v -5.949458 0.400970 1.712044
v -5.993254 0.400970 1.835958
v -6.060125 0.400970 1.935187
v -6.145138 0.400970 2.010075
v -6.249512 0.400970 2.037764
v -6.351525 0.400970 2.076626
v -6.459584 0.400970 2.086348
v -6.567640 0.400970 2.055764
v -6.669210 0.400970 2.002547
v -6.759866 0.400970 1.967400
v -6.833712 0.400970 1.881484
v -6.886225 0.400970 1.773965
v -6.912472 0.400970 1.645186
v -7.593601 0.400970 -6.688480
v -7.584713 0.400970 -6.756224
v -7.455136 0.400970 -6.979717
v -7.106107 0.400970 -7.144547
v 9.999451 1.557593 9.997338
v -9.999451 1.557593 9.997338
v -9.999451 1.557593 -9.997338
v 9.999451 1.557593 -9.997338
v -8.683739 1.557593 -8.416195
v -8.787633 1.557593 -8.403434
v -8.884432 1.557593 -8.372762
v -8.943116 1.557593 -8.341260
v -8.996594 1.557593 -8.302364
v -9.124093 1.557593 -8.113715
v -9.172276 1.557593 -7.883518
v -8.142150 1.557593 3.447171
v 6.879689 1.557593 8.935764
v -8.057744 1.557593 3.849661
v -7.877736 1.557593 4.074381
v -6.779290 1.557593 5.127935
v 3.062819 1.557593 8.961794
v -6.404068 1.557593 5.308983
v -5.956435 1.557593 5.210721
v -4.174532 1.557593 4.235944
v -3.884953 1.557593 4.014029
v -2.388962 1.557593 0.906169
v -2.825664 1.557593 0.941502
v -2.472549 1.557593 0.867661
v -2.741306 1.557593 0.893116
v -3.729306 1.557593 3.655334
v -3.020936 1.557593 1.104282
v -2.967882 1.557593 1.022005
v -2.901751 1.557593 0.954678
v -2.560850 1.557593 0.846366
v -2.301085 1.557593 0.932630
v -2.228232 1.557593 0.998032
v -2.166776 1.557593 1.081666
v 2.240402 1.557593 8.543468
v -2.652144 1.557593 0.860575
v -4.319226 1.557593 -4.271781
v 2.517993 1.557593 8.850115
v 2.832945 1.557593 8.942443
v 7.196689 1.557593 8.847877
v 7.412393 1.557593 8.635027
v 7.444174 1.557593 8.510579
v 7.450762 1.557593 6.769380
v 7.470306 1.557593 -2.396792
v 7.490382 1.557593 -7.097642
v 7.409865 1.557593 -7.127133
v -7.242977 1.557593 -7.109791
v 7.321568 1.557593 -7.142549
v -7.176175 1.557593 -7.130778
v 7.544701 1.557593 -2.576796
v 9.389426 1.557593 -6.039615
v 9.394014 1.557593 -7.910053
v 9.296836 1.557593 -8.190426
v 9.095809 1.557593 -8.377365
v 8.971336 1.557593 -8.409139
v 2.289355 1.557593 -8.415729
v 7.665752 1.557593 -7.002758
v 7.741564 1.557593 -6.907598
v 7.777205 1.557593 -6.834580
v 7.800466 1.557593 -6.756411
v 7.810381 1.557593 -6.674713
v 7.805987 1.557593 -6.591112
v 7.786318 1.557593 -6.507231
v 5.572082 1.557593 -2.397227
v 5.091126 1.557593 6.114017
v 5.073992 1.557593 6.221215
v 5.036914 1.557593 6.316061
v 4.982834 1.557593 6.397644
v 4.914692 1.557593 6.465052
v 4.827827 1.557593 6.496100
v 4.744374 1.557593 6.535897
v 4.654323 1.557593 6.564071
v 4.560512 1.557593 6.570049
v 4.466576 1.557593 6.543275
v 4.373882 1.557593 6.492291
v 4.291128 1.557593 6.463537
v 4.216409 1.557593 6.384765
v -3.895112 1.557593 -4.183578
v -3.972220 1.557593 -4.229661
v -4.055748 1.557593 -4.258709
v -4.143220 1.557593 -4.271268
v -4.486650 1.557593 -4.205384
v -4.561665 1.557593 -4.157169
v -4.627751 1.557593 -4.095206
v -5.949458 1.557593 1.712044
v -5.993254 1.557593 1.835958
v -6.060125 1.557593 1.935187
v -6.145138 1.557593 2.010075
v -6.249512 1.557593 2.037764
v -6.351525 1.557593 2.076626
v -6.459584 1.557593 2.086348
v -6.567640 1.557593 2.055764
v -6.669210 1.557593 2.002547
v -6.759866 1.557593 1.967400
v -6.833712 1.557593 1.881484
v -6.886225 1.557593 1.773965
v -6.912472 1.557593 1.645186
v -7.593601 1.557593 -6.688480
v -7.584713 1.557593 -6.756224
v -7.455136 1.557593 -6.979717
v -7.106107 1.557593 -7.144547
vn -0.0000 -1.0000 -0.0000
vn -0.0000 1.0000 -0.0000
vn 0.6610 -0.0000 0.7504
vn -1.0000 -0.0000 -0.0038
vn -0.3615 -0.0000 0.9324
vn -0.7024 -0.0000 -0.7118
vn 0.2564 -0.0000 0.9666
vn 0.0839 -0.0000 -0.9965
vn -0.4641 -0.0000 0.8858
vn 0.3560 -0.0000 0.9345
vn -1.0000 -0.0000 -0.0000
vn -0.2723 -0.0000 0.9622
vn 0.8285 -0.0000 0.5600
vn 0.0896 -0.0000 0.9960
vn 0.5882 -0.0000 0.8087
vn 0.9959 -0.0000 -0.0905
vn 0.4730 -0.0000 0.8811
vn -0.9635 -0.0000 -0.2676
vn -0.0000 -0.0000 -1.0000
vn 0.2883 -0.0000 -0.9575
vn 0.1219 -0.0000 0.9925
vn 0.4759 -0.0000 -0.8795
vn -0.0000 -0.0000 1.0000
vn -0.6083 -0.0000 -0.7937
vn 0.6922 -0.0000 -0.7217
vn -0.2473 -0.0000 0.9689
vn -0.4799 -0.0000 -0.8773
vn -0.5227 -0.0000 -0.8525
vn -1.0000 -0.0000 -0.0021
vn 1.0000 -0.0000 -0.0000
vn 0.3439 -0.0000 -0.9390
vn 0.9984 -0.0000 0.0564
vn 0.8987 -0.0000 -0.4387
vn 0.9875 -0.0000 0.1578
vn 0.9585 -0.0000 -0.2852
vn -0.7933 -0.0000 0.6089
vn -0.8651 -0.0000 -0.5016
vn 0.9314 -0.0000 0.3641
vn 0.9927 -0.0000 -0.1205
vn 0.8335 -0.0000 0.5525
vn -0.9915 -0.0000 -0.1301
vn -0.7255 -0.0000 0.6882
vn 0.9986 -0.0000 0.0525
vn 0.7033 -0.0000 0.7109
vn 0.9736 -0.0000 0.2283
vn -0.3282 -0.0000 0.9446
vn -0.2997 -0.0000 -0.9540
vn 0.3366 -0.0000 0.9417
vn 0.1720 -0.0000 -0.9851
vn 0.4304 -0.0000 0.9026
vn 0.0001 -0.0000 -1.0000
vn -0.4819 -0.0000 0.8762
vn -0.1928 -0.0000 -0.9812
vn 0.2986 -0.0000 0.9544
vn 0.9788 -0.0000 0.2049
vn -0.2741 -0.0000 0.9617
vn -0.6810 -0.0000 0.7323
vn 0.0636 -0.0000 0.9980
vn -0.0010 -0.0000 1.0000
vn 0.8610 -0.0000 -0.5086
vn 0.3021 -0.0000 0.9533
vn -0.9689 -0.0000 -0.2474
vn -0.0029 -0.0000 1.0000
vn -0.1421 -0.0000 0.9898
vn -0.9449 -0.0000 0.3275
vn -0.3285 -0.0000 0.9445
vn -1.0000 -0.0000 -0.0025
vn -0.5130 -0.0000 0.8584
vn -0.9242 -0.0000 -0.3820
vn 0.5407 -0.0000 0.8412
vn 0.8804 -0.0000 0.4743
vn 0.6840 -0.0000 0.7295
vn 0.9787 -0.0000 -0.2052
vn -0.8826 -0.0000 -0.4702
vn -0.9174 -0.0000 -0.3981
vn -0.2672 -0.0000 -0.9636
vn 0.7805 -0.0000 -0.6252
vn -0.1706 -0.0000 -0.9853
vn 0.4346 -0.0000 -0.9006
vn 0.6680 -0.0000 -0.7441
vn -0.2144 -0.0000 -0.9767
vn -0.7134 -0.0000 -0.7007
vn 0.7414 -0.0000 -0.6711
vn 0.8058 -0.0000 -0.5921
vn 0.2813 -0.0000 -0.9596
vn -0.8404 -0.0000 -0.5419
vn 0.7821 -0.0000 -0.6231
vn -0.9967 -0.0000 0.0815
vn 0.3686 -0.0000 0.9296
vn 0.9751 -0.0000 0.2219
vn -0.0068 -0.0000 -1.0000
vn -0.9799 -0.0000 0.1997
vn -0.1538 -0.0000 -0.9881
vn 0.9428 -0.0000 0.3332
vn 0.2344 -0.0000 -0.9721
vn -0.8986 -0.0000 0.4389
vn -0.3428 -0.0000 -0.9394
vn 0.8293 -0.0000 0.5588
vn 0.4184 -0.0000 -0.9083
vn -0.7584 -0.0000 0.6518
vn -0.4975 -0.0000 -0.8674
vn 0.8987 -0.0000 -0.4386
vt 0.528974 0.000000
vt 0.567183 0.000000
vt 0.007752 0.000000
vt 0.943152 0.000000
vt 0.827540 0.000000
vt 0.832121 0.000000
vt 0.073643 0.000000
vt 0.108527 0.000000
vt 0.002584 0.000000
vt 0.580103 0.000000
vt 0.837285 0.000000
vt 0.970796 0.000000
vt 0.211886 0.000000
vt 0.191214 0.000000
vt 0.883721 0.000000
vt 0.886305 0.000000
vt 0.410853 0.000000
vt 0.421189 0.000000
vt 0.899368 0.000000
vt 0.901809 0.000000
vt 0.392765 0.000000
vt 0.405685 0.000000
vt 0.888958 0.000000
vt 0.352212 0.000000
vt 0.349097 0.000000
vt 0.896693 0.000000
vt 0.891493 0.000000
vt 0.005168 0.000000
vt 0.894064 0.000000
vt 0.023256 0.000000
vt 0.032300 0.000000
vt 0.020672 0.000000
vt 0.039981 0.000000
vt 0.069767 0.000000
vt 0.018088 0.000000
vt 0.232558 0.000000
vt 0.260982 0.000000
vt 0.281552 0.000000
vt 0.284238 0.000000
vt 0.011618 0.000000
vt 0.014212 0.000000
vt 0.637867 0.000000
vt 0.642119 0.000000
vt 0.612403 0.000000
vt 0.129199 0.000000
vt 0.591731 0.000000
vt 0.596899 0.000000
vt 0.170543 0.000000
vt 0.956072 0.000000
vt 0.964418 0.000000
vt 0.459948 0.000000
vt 0.000000 0.000000
vt 0.635334 0.000000
vt 0.693798 0.000000
vt 0.754522 0.000000
vt 0.645995 0.000000
vt 0.648579 0.000000
vt 0.757106 0.000000
vt 0.651163 0.000000
vt 0.785530 0.000000
vt 0.819879 0.000000
vt 0.945736 0.000000
vt 0.759690 0.000000
vt 0.653747 0.000000
vt 0.762274 0.000000
vt 0.782946 0.000000
vt 0.656331 0.000000
vt 0.764858 0.000000
vt 0.658915 0.000000
vt 0.780474 0.000000
vt 0.966940 0.000000
vt 0.767508 0.000000
vt 0.632819 0.000000
vt 0.770063 0.000000
vt 0.777797 0.000000
vt 0.772619 0.000000
vt 0.775194 0.000000
vt 0.289406 0.000000
vt 0.317829 0.000000
vt 0.824969 0.000000
vt 0.822416 0.000000
vt 0.478036 0.000000
vt 0.839883 0.000000
vt 0.842492 0.000000
vt 0.380211 0.000000
vt 0.266150 0.000000
vt 0.268586 0.000000
vt 0.133075 0.000000
vt 0.286822 0.000000
vt 0.263566 0.000000
vt 0.321705 0.000000
vt 0.909561 0.000000
vt 0.878553 0.000000
vt 0.906977 0.000000
vt 0.273882 0.000000
vt 0.276489 0.000000
vt 0.881137 0.000000
vt 0.279030 0.000000
vt 0.904393 0.000000
vt 0.271251 0.000000
s 0
f 50/1/1 51/2/1 4/3/1
f 97/4/1 80/5/1 36/6/1
f 14/7/1 15/8/1 2/9/1
f 104/3/2 152/10/2 151/2/2
f 181/11/2 136/6/2 200/12/2
f 102/9/2 121/13/2 120/14/2
f 86/15/3 187/16/3 87/16/3
f 41/17/4 142/18/4 42/18/4
f 92/19/5 193/20/5 93/20/5
f 39/21/6 140/22/6 40/22/6
f 87/16/7 188/23/7 88/23/7
f 38/24/8 117/25/8 17/25/8
f 91/26/9 192/19/9 92/19/9
f 88/23/10 189/27/10 89/27/10
f 2/9/11 103/28/11 3/28/11
f 90/29/12 191/26/12 91/26/12
f 9/30/13 110/31/13 10/31/13
f 89/27/14 190/29/14 90/29/14
f 8/32/15 109/30/15 9/30/15
f 11/33/16 112/34/16 12/34/16
f 7/35/17 108/32/17 8/32/17
f 26/36/18 127/37/18 27/37/18
f 3/28/19 104/3/19 4/3/19
f 22/38/20 131/39/20 31/39/20
f 5/40/21 106/41/21 6/41/21
f 44/42/22 156/43/22 56/43/22
f 55/44/23 105/40/23 5/40/23
f 20/14/24 121/13/24 21/13/24
f 15/8/25 116/45/25 16/45/25
f 53/46/26 154/47/26 54/47/26
f 19/48/27 120/14/27 20/14/27
f 99/49/28 146/50/28 46/50/28
f 42/18/29 143/51/29 43/51/29
f 4/3/30 101/52/30 1/52/30
f 45/53/31 144/42/31 44/42/31
f 63/54/32 164/55/32 64/55/32
f 57/56/33 158/57/33 58/57/33
f 64/55/34 165/58/34 65/58/34
f 58/57/35 159/59/35 59/59/35
f 76/60/36 177/61/36 77/61/36
f 98/62/37 199/49/37 99/49/37
f 65/58/38 166/63/38 66/63/38
f 59/59/39 160/64/39 60/64/39
f 66/63/40 167/65/40 67/65/40
f 97/4/41 198/62/41 98/62/41
f 75/66/42 176/60/42 76/60/42
f 60/64/43 161/67/43 61/67/43
f 67/65/44 168/68/44 68/68/44
f 61/67/45 162/69/45 62/69/45
f 74/70/46 175/66/46 75/66/46
f 46/50/47 148/71/47 48/71/47
f 68/68/48 169/72/48 69/72/48
f 47/73/49 145/53/49 45/53/49
f 69/72/50 170/74/50 70/74/50
f 100/12/51 147/73/51 47/73/51
f 73/75/52 174/70/52 74/70/52
f 48/71/53 200/12/53 100/12/53
f 70/74/54 171/76/54 71/76/54
f 10/31/55 111/33/55 11/33/55
f 72/77/56 173/75/56 73/75/56
f 52/10/57 153/46/57 53/46/57
f 71/76/58 172/77/58 72/77/58
f 54/47/59 155/44/59 55/44/59
f 33/78/60 134/79/60 34/79/60
f 6/41/61 107/35/61 7/35/61
f 40/22/62 141/17/62 41/17/62
f 80/5/63 136/6/63 36/6/63
f 1/52/23 102/9/23 2/9/23
f 79/80/64 180/5/64 80/5/64
f 51/2/65 152/10/65 52/10/65
f 78/81/66 179/80/66 79/80/66
f 50/1/67 151/2/67 51/2/67
f 77/61/68 178/81/68 78/81/68
f 43/51/69 149/82/69 49/82/69
f 81/11/70 182/83/70 82/83/70
f 62/69/71 163/54/71 63/54/71
f 82/83/72 183/84/72 83/84/72
f 12/34/73 114/7/73 14/7/73
f 49/82/74 150/1/74 50/1/74
f 21/13/75 126/36/75 26/36/75
f 13/85/76 139/21/76 39/21/76
f 14/7/77 115/8/77 15/8/77
f 29/86/78 123/87/78 23/87/78
f 16/45/79 118/88/79 18/88/79
f 31/39/80 132/89/80 32/89/80
f 18/88/81 119/48/81 19/48/81
f 28/90/82 129/86/82 29/86/82
f 34/79/83 137/91/83 37/91/83
f 32/89/84 133/78/84 33/78/84
f 37/91/85 138/24/85 38/24/85
f 27/37/86 128/90/86 28/90/86
f 56/43/87 157/56/87 57/56/87
f 96/92/88 197/4/88 97/4/88
f 36/6/89 181/11/89 81/11/89
f 83/84/90 184/93/90 84/93/90
f 17/25/91 113/85/91 13/85/91
f 95/94/92 196/92/92 96/92/92
f 35/95/93 130/96/93 30/96/93
f 84/93/94 185/97/94 85/97/94
f 30/96/95 124/98/95 24/98/95
f 94/99/96 195/94/96 95/94/96
f 25/100/97 135/95/97 35/95/97
f 85/97/98 186/15/98 86/15/98
f 24/98/99 122/38/99 22/38/99
f 93/20/100 194/99/100 94/99/100
f 23/87/101 125/100/101 25/100/101
f 54/47/1 55/44/1 4/3/1
f 4/3/1 1/52/1 42/18/1
f 42/18/1 43/51/1 49/82/1
f 42/18/1 49/82/1 50/1/1
f 53/46/1 54/47/1 4/3/1
f 52/10/1 53/46/1 4/3/1
f 4/3/1 42/18/1 50/1/1
f 51/2/1 52/10/1 4/3/1
f 83/84/1 84/93/1 85/97/1
f 85/97/1 86/15/1 87/16/1
f 88/23/1 89/27/1 90/29/1
f 85/97/1 87/16/1 88/23/1
f 83/84/1 85/97/1 88/23/1
f 88/23/1 90/29/1 91/26/1
f 92/19/1 93/20/1 94/99/1
f 88/23/1 91/26/1 92/19/1
f 83/84/1 88/23/1 92/19/1
f 92/19/1 94/99/1 95/94/1
f 95/94/1 96/92/1 97/4/1
f 97/4/1 98/62/1 99/49/1
f 99/49/1 46/50/1 48/71/1
f 48/71/1 100/12/1 47/73/1
f 47/73/1 45/53/1 44/42/1
f 44/42/1 56/43/1 57/56/1
f 57/56/1 58/57/1 59/59/1
f 59/59/1 60/64/1 61/67/1
f 61/67/1 62/69/1 63/54/1
f 63/54/1 64/55/1 65/58/1
f 65/58/1 66/63/1 67/65/1
f 67/65/1 68/68/1 69/72/1
f 69/72/1 70/74/1 71/76/1
f 71/76/1 72/77/1 73/75/1
f 74/70/1 75/66/1 76/60/1
f 71/76/1 73/75/1 74/70/1
f 67/65/1 69/72/1 71/76/1
f 63/54/1 65/58/1 67/65/1
f 59/59/1 61/67/1 63/54/1
f 44/42/1 57/56/1 59/59/1
f 48/71/1 47/73/1 44/42/1
f 97/4/1 99/49/1 48/71/1
f 92/19/1 95/94/1 97/4/1
f 83/84/1 92/19/1 97/4/1
f 97/4/1 48/71/1 44/42/1
f 44/42/1 59/59/1 63/54/1
f 63/54/1 67/65/1 71/76/1
f 71/76/1 74/70/1 76/60/1
f 71/76/1 76/60/1 77/61/1
f 97/4/1 44/42/1 63/54/1
f 63/54/1 71/76/1 77/61/1
f 63/54/1 77/61/1 78/81/1
f 82/83/1 83/84/1 97/4/1
f 81/11/1 82/83/1 97/4/1
f 97/4/1 63/54/1 78/81/1
f 97/4/1 78/81/1 79/80/1
f 36/6/1 81/11/1 97/4/1
f 97/4/1 79/80/1 80/5/1
f 26/36/1 27/37/1 28/90/1
f 28/90/1 29/86/1 23/87/1
f 23/87/1 25/100/1 35/95/1
f 35/95/1 30/96/1 24/98/1
f 22/38/1 31/39/1 32/89/1
f 35/95/1 24/98/1 22/38/1
f 28/90/1 23/87/1 35/95/1
f 26/36/1 28/90/1 35/95/1
f 35/95/1 22/38/1 32/89/1
f 32/89/1 33/78/1 34/79/1
f 35/95/1 32/89/1 34/79/1
f 26/36/1 35/95/1 34/79/1
f 26/36/1 34/79/1 37/91/1
f 21/13/1 26/36/1 37/91/1
f 20/14/1 21/13/1 37/91/1
f 19/48/1 20/14/1 37/91/1
f 18/88/1 19/48/1 37/91/1
f 41/17/1 42/18/1 1/52/1
f 3/28/1 4/3/1 55/44/1
f 3/28/1 55/44/1 5/40/1
f 40/22/1 41/17/1 1/52/1
f 39/21/1 40/22/1 1/52/1
f 3/28/1 5/40/1 6/41/1
f 3/28/1 6/41/1 7/35/1
f 13/85/1 39/21/1 1/52/1
f 17/25/1 13/85/1 1/52/1
f 3/28/1 7/35/1 8/32/1
f 3/28/1 8/32/1 9/30/1
f 17/25/1 1/52/1 2/9/1
f 38/24/1 17/25/1 2/9/1
f 3/28/1 9/30/1 10/31/1
f 3/28/1 10/31/1 11/33/1
f 37/91/1 38/24/1 2/9/1
f 18/88/1 37/91/1 2/9/1
f 2/9/1 3/28/1 11/33/1
f 2/9/1 11/33/1 12/34/1
f 16/45/1 18/88/1 2/9/1
f 15/8/1 16/45/1 2/9/1
f 2/9/1 12/34/1 14/7/1
f 150/1/2 149/82/2 143/51/2
f 143/51/2 142/18/2 101/52/2
f 104/3/2 155/44/2 154/47/2
f 104/3/2 154/47/2 153/46/2
f 150/1/2 143/51/2 101/52/2
f 151/2/2 150/1/2 101/52/2
f 104/3/2 153/46/2 152/10/2
f 151/2/2 101/52/2 104/3/2
f 177/61/2 176/60/2 175/66/2
f 174/70/2 173/75/2 172/77/2
f 177/61/2 175/66/2 174/70/2
f 177/61/2 174/70/2 172/77/2
f 172/77/2 171/76/2 170/74/2
f 169/72/2 168/68/2 167/65/2
f 172/77/2 170/74/2 169/72/2
f 177/61/2 172/77/2 169/72/2
f 169/72/2 167/65/2 166/63/2
f 166/63/2 165/58/2 164/55/2
f 163/54/2 162/69/2 161/67/2
f 166/63/2 164/55/2 163/54/2
f 177/61/2 169/72/2 166/63/2
f 177/61/2 166/63/2 163/54/2
f 163/54/2 161/67/2 160/64/2
f 160/64/2 159/59/2 158/57/2
f 158/57/2 157/56/2 156/43/2
f 156/43/2 144/42/2 145/53/2
f 145/53/2 147/73/2 200/12/2
f 200/12/2 148/71/2 146/50/2
f 146/50/2 199/49/2 198/62/2
f 198/62/2 197/4/2 196/92/2
f 196/92/2 195/94/2 194/99/2
f 194/99/2 193/20/2 192/19/2
f 192/19/2 191/26/2 190/29/2
f 190/29/2 189/27/2 188/23/2
f 188/23/2 187/16/2 186/15/2
f 186/15/2 185/97/2 184/93/2
f 186/15/2 184/93/2 183/84/2
f 190/29/2 188/23/2 186/15/2
f 194/99/2 192/19/2 190/29/2
f 198/62/2 196/92/2 194/99/2
f 200/12/2 146/50/2 198/62/2
f 156/43/2 145/53/2 200/12/2
f 160/64/2 158/57/2 156/43/2
f 177/61/2 163/54/2 160/64/2
f 178/81/2 177/61/2 160/64/2
f 160/64/2 156/43/2 200/12/2
f 200/12/2 198/62/2 194/99/2
f 194/99/2 190/29/2 186/15/2
f 194/99/2 186/15/2 183/84/2
f 178/81/2 160/64/2 200/12/2
f 179/80/2 178/81/2 200/12/2
f 200/12/2 194/99/2 183/84/2
f 200/12/2 183/84/2 182/83/2
f 180/5/2 179/80/2 200/12/2
f 136/6/2 180/5/2 200/12/2
f 200/12/2 182/83/2 181/11/2
f 105/40/2 155/44/2 104/3/2
f 101/52/2 142/18/2 141/17/2
f 101/52/2 141/17/2 140/22/2
f 105/40/2 104/3/2 103/28/2
f 106/41/2 105/40/2 103/28/2
f 101/52/2 140/22/2 139/21/2
f 101/52/2 139/21/2 113/85/2
f 107/35/2 106/41/2 103/28/2
f 108/32/2 107/35/2 103/28/2
f 102/9/2 101/52/2 113/85/2
f 102/9/2 113/85/2 117/25/2
f 109/30/2 108/32/2 103/28/2
f 110/31/2 109/30/2 103/28/2
f 102/9/2 117/25/2 138/24/2
f 102/9/2 138/24/2 137/91/2
f 111/33/2 110/31/2 103/28/2
f 112/34/2 111/33/2 103/28/2
f 102/9/2 137/91/2 134/79/2
f 134/79/2 133/78/2 132/89/2
f 132/89/2 131/39/2 122/38/2
f 122/38/2 124/98/2 130/96/2
f 130/96/2 135/95/2 125/100/2
f 123/87/2 129/86/2 128/90/2
f 130/96/2 125/100/2 123/87/2
f 132/89/2 122/38/2 130/96/2
f 112/34/2 103/28/2 102/9/2
f 114/7/2 112/34/2 102/9/2
f 134/79/2 132/89/2 130/96/2
f 130/96/2 123/87/2 128/90/2
f 128/90/2 127/37/2 126/36/2
f 130/96/2 128/90/2 126/36/2
f 115/8/2 114/7/2 102/9/2
f 116/45/2 115/8/2 102/9/2
f 134/79/2 130/96/2 126/36/2
f 134/79/2 126/36/2 121/13/2
f 118/88/2 116/45/2 102/9/2
f 119/48/2 118/88/2 102/9/2
f 102/9/2 134/79/2 121/13/2
f 120/14/2 119/48/2 102/9/2
f 86/15/3 186/15/3 187/16/3
f 41/17/4 141/17/4 142/18/4
f 92/19/5 192/19/5 193/20/5
f 39/21/6 139/21/6 140/22/6
f 87/16/7 187/16/7 188/23/7
f 38/24/8 138/24/8 117/25/8
f 91/26/9 191/26/9 192/19/9
f 88/23/10 188/23/10 189/27/10
f 2/9/11 102/9/11 103/28/11
f 90/29/12 190/29/12 191/26/12
f 9/30/13 109/30/13 110/31/13
f 89/27/14 189/27/14 190/29/14
f 8/32/15 108/32/15 109/30/15
f 11/33/16 111/33/16 112/34/16
f 7/35/17 107/35/17 108/32/17
f 26/36/18 126/36/18 127/37/18
f 3/28/19 103/28/19 104/3/19
f 22/38/20 122/38/20 131/39/20
f 5/40/21 105/40/21 106/41/21
f 44/42/22 144/42/22 156/43/22
f 55/44/23 155/44/23 105/40/23
f 20/14/24 120/14/24 121/13/24
f 15/8/25 115/8/25 116/45/25
f 53/46/26 153/46/26 154/47/26
f 19/48/27 119/48/27 120/14/27
f 99/49/28 199/49/28 146/50/28
f 42/18/29 142/18/29 143/51/29
f 4/3/30 104/3/30 101/52/30
f 45/53/31 145/53/31 144/42/31
f 63/54/32 163/54/32 164/55/32
f 57/56/102 157/56/102 158/57/102
f 64/55/34 164/55/34 165/58/34
f 58/57/35 158/57/35 159/59/35
f 76/60/36 176/60/36 177/61/36
f 98/62/37 198/62/37 199/49/37
f 65/58/38 165/58/38 166/63/38
f 59/59/39 159/59/39 160/64/39
f 66/63/40 166/63/40 167/65/40
f 97/4/41 197/4/41 198/62/41
f 75/66/42 175/66/42 176/60/42
f 60/64/43 160/64/43 161/67/43
f 67/65/44 167/65/44 168/68/44
f 61/67/45 161/67/45 162/69/45
f 74/70/46 174/70/46 175/66/46
f 46/50/47 146/50/47 148/71/47
f 68/68/48 168/68/48 169/72/48
f 47/73/49 147/73/49 145/53/49
f 69/72/50 169/72/50 170/74/50
f 100/12/51 200/12/51 147/73/51
f 73/75/52 173/75/52 174/70/52
f 48/71/53 148/71/53 200/12/53
f 70/74/54 170/74/54 171/76/54
f 10/31/55 110/31/55 111/33/55
f 72/77/56 172/77/56 173/75/56
f 52/10/57 152/10/57 153/46/57
f 71/76/58 171/76/58 172/77/58
f 54/47/59 154/47/59 155/44/59
f 33/78/60 133/78/60 134/79/60
f 6/41/61 106/41/61 107/35/61
f 40/22/62 140/22/62 141/17/62
f 80/5/63 180/5/63 136/6/63
f 1/52/23 101/52/23 102/9/23
f 79/80/64 179/80/64 180/5/64
f 51/2/65 151/2/65 152/10/65
f 78/81/66 178/81/66 179/80/66
f 50/1/67 150/1/67 151/2/67
f 77/61/68 177/61/68 178/81/68
f 43/51/69 143/51/69 149/82/69
f 81/11/70 181/11/70 182/83/70
f 62/69/71 162/69/71 163/54/71
f 82/83/72 182/83/72 183/84/72
f 12/34/73 112/34/73 114/7/73
f 49/82/74 149/82/74 150/1/74
f 21/13/75 121/13/75 126/36/75
f 13/85/76 113/85/76 139/21/76
f 14/7/77 114/7/77 115/8/77
f 29/86/78 129/86/78 123/87/78
f 16/45/79 116/45/79 118/88/79
f 31/39/80 131/39/80 132/89/80
f 18/88/81 118/88/81 119/48/81
f 28/90/82 128/90/82 129/86/82
f 34/79/83 134/79/83 137/91/83
f 32/89/84 132/89/84 133/78/84
f 37/91/85 137/91/85 138/24/85
f 27/37/86 127/37/86 128/90/86
f 56/43/87 156/43/87 157/56/87
f 96/92/88 196/92/88 197/4/88
f 36/6/89 136/6/89 181/11/89
f 83/84/90 183/84/90 184/93/90
f 17/25/91 117/25/91 113/85/91
f 95/94/92 195/94/92 196/92/92
f 35/95/93 135/95/93 130/96/93
f 84/93/94 184/93/94 185/97/94
f 30/96/95 130/96/95 124/98/95
f 94/99/96 194/99/96 195/94/96
f 25/100/97 125/100/97 135/95/97
f 85/97/98 185/97/98 186/15/98
f 24/98/99 124/98/99 122/38/99
f 93/20/100 193/20/100 194/99/100
f 23/87/101 123/87/101 125/100/101
