# Blender 5.0.1
# www.blender.org
o track1-collision
v -3.652552 -1.000000 1.894354
v -3.652552 1.000000 1.894354
v 1.000000 -1.000000 1.894354
v 1.000000 1.000000 1.894354
v -1.610218 -1.000000 -6.124071
v -1.610218 1.000000 -6.124071
v -3.652552 -1.000000 -0.226619
v -3.652552 1.000000 -0.226619
v -1.610218 1.000000 -0.226619
v -1.610218 -1.000000 -0.226619
v -3.652552 1.000000 -1.790404
v 1.161316 -1.000000 -1.790404
v -3.652552 -1.000000 -1.790404
v 1.161316 1.000000 -1.790404
v -1.610218 1.000000 -1.790404
v -1.610218 -1.000000 -1.790404
v -3.652552 1.000000 -2.433631
v 1.161316 -1.000000 -2.433631
v -3.652552 -1.000000 -2.433631
v 1.161316 1.000000 -2.433631
v -1.610218 1.000000 -2.433631
v -1.610218 -1.000000 -2.433631
v -3.652552 1.000000 -4.032822
v -3.652552 -1.000000 -4.032822
v -1.610218 1.000000 -4.032822
v -1.610218 -1.000000 -4.032822
v -3.652552 -1.000000 0.833965
v 3.107515 1.000000 0.833965
v -1.610218 1.000000 0.833965
v -1.610218 -1.000000 0.833965
v -3.652552 1.000000 0.833965
v 3.107515 -1.000000 0.833965
v -3.652552 -1.000000 1.364159
v 2.735925 1.000000 1.364159
v -1.610218 1.000000 1.364159
v -1.610218 -1.000000 1.364159
v -3.652552 1.000000 1.364159
v 2.735925 -1.000000 1.364159
v -3.652552 1.000000 0.303673
v 3.282746 -1.000000 0.303673
v -3.652552 -1.000000 0.303673
v 3.282746 1.000000 0.303673
v -1.610218 1.000000 0.303673
v -1.610218 -1.000000 0.303673
v -3.652552 -1.000000 1.629256
v 1.986603 1.000000 1.815087
v -1.610218 1.000000 1.629256
v -1.610218 -1.000000 1.629256
v -3.652552 1.000000 1.629256
v 1.986603 -1.000000 1.815087
v -2.650702 -1.000000 5.783578
v -3.652552 -1.000000 4.781727
v -3.151627 -1.000000 5.649356
v -3.518330 -1.000000 5.282653
v -3.652552 1.000000 4.781727
v -2.650702 1.000000 5.783578
v -3.518330 1.000000 5.282653
v -3.151627 1.000000 5.649356
v -2.612069 1.000000 5.783578
v -1.653959 1.000000 4.781727
v -2.111143 1.000000 5.649356
v -1.744441 1.000000 5.282653
v -1.653959 -1.000000 4.781727
v -2.612069 -1.000000 5.783578
v -1.744440 -1.000000 5.282653
v -2.111143 -1.000000 5.649356
v -3.652552 -1.000000 -5.636418
v -3.164899 -1.000000 -6.124071
v -3.587219 -1.000000 -5.880244
v -3.408726 -1.000000 -6.058737
v -3.164899 1.000000 -6.124071
v -3.652552 1.000000 -5.636418
v -3.408726 1.000000 -6.058737
v -3.587219 1.000000 -5.880244
v 2.808027 -1.000000 -6.124071
v 3.356241 -1.000000 -5.575857
v 3.017819 -1.000000 -6.082341
v 3.195673 -1.000000 -5.963503
v 3.314511 -1.000000 -5.785650
v 3.356241 1.000000 -5.575857
v 2.808027 1.000000 -6.124071
v 3.314511 1.000000 -5.785650
v 3.195673 1.000000 -5.963503
v 3.017819 1.000000 -6.082341
v 3.256439 -1.000000 -0.304358
v 3.345189 -1.000000 -0.093877
v 3.231669 -1.000000 -0.226619
v 3.345189 1.000000 -0.093876
v 3.256439 1.000000 -0.304357
v 3.231669 1.000000 -0.226619
v 3.356241 -1.000000 -4.214913
v 3.209069 -1.000000 -3.925594
v 3.174150 -1.000000 -4.032822
v 3.209069 1.000000 -3.925594
v 3.356241 1.000000 -4.214913
v 3.174150 1.000000 -4.032822
v -1.437151 -1.000000 1.894354
v -1.653959 -1.000000 2.067420
v -1.783284 -1.000000 1.894354
v -1.610218 -1.000000 1.721287
v -1.653959 1.000000 2.067420
v -1.437151 1.000000 1.894354
v -1.610218 1.000000 1.721287
v -1.783285 1.000000 1.894354
v -7.392053 -1.000000 9.751554
v -7.392053 1.000000 9.751554
v -7.392053 -1.000000 -7.117521
v -7.392053 1.000000 -7.117521
v -5.392053 -1.000000 9.751554
v -5.392053 1.000000 9.751554
v -5.392053 -1.000000 -7.117521
v -5.392053 1.000000 -7.117521
v -7.392053 -1.000000 7.505352
v -7.392053 1.000000 7.505352
v -5.392053 -1.000000 7.505352
v -5.392053 1.000000 7.505352
v 8.285826 1.000000 7.505352
v 8.285826 1.000000 9.751554
v 8.285826 -1.000000 9.751554
v 8.285826 -1.000000 7.505352
v -0.032293 1.000000 9.751554
v 0.018103 1.000000 7.505352
v -0.032293 -1.000000 9.751554
v 0.018103 -1.000000 7.505352
v 8.285826 1.000000 3.274858
v 8.285826 -1.000000 3.274858
v 5.564685 1.000000 9.751554
v 5.564685 -1.000000 9.751554
v 5.581172 1.000000 7.505352
v 5.581172 -1.000000 7.505352
v 8.285826 1.000000 -7.623500
v 8.285826 1.000000 -10.645117
v 8.285826 -1.000000 -10.645117
v 5.389846 1.000000 -10.645117
v 5.389846 -1.000000 -10.645117
v 5.389846 1.000000 -3.454066
v 5.389846 -1.000000 -3.454066
v 8.285826 1.000000 -3.733165
v 8.285826 -1.000000 -3.733165
v 5.389846 -1.000000 -0.758648
v 8.285826 -1.000000 -0.631534
v 5.389846 1.000000 -0.758649
v 8.285826 1.000000 -0.631534
v 8.285826 1.000000 -2.493006
v 8.285826 -1.000000 -2.493006
v 8.285826 -1.000000 -1.765624
v 8.285826 1.000000 -1.765624
v 5.389846 1.000000 0.157959
v 2.272947 1.000000 3.274858
v 5.530665 1.000000 6.388575
v 8.285776 1.000000 3.274858
v 5.023673 1.000000 1.268955
v 4.313437 1.000000 2.198448
v 3.383943 1.000000 2.908684
v 2.272947 -1.000000 3.274858
v 5.389846 -1.000000 0.157959
v 8.285776 -1.000000 3.274858
v 5.530665 -1.000000 6.388575
v 3.383943 -1.000000 2.908684
v 4.313437 -1.000000 2.198448
v 5.023673 -1.000000 1.268955
v 8.285826 -1.000000 -7.623499
v -4.882079 1.000000 -7.500710
v -4.882079 -1.000000 -7.500710
v -4.882079 -1.000000 -10.645117
v -4.882079 1.000000 -10.645117
v 3.292190 1.000000 -7.500710
v 5.389846 1.000000 -5.403053
v 7.485619 1.000000 -7.589571
v 5.389846 1.000000 -9.598366
v 3.940401 1.000000 -7.398043
v 4.525161 1.000000 -7.100093
v 4.989229 1.000000 -6.636024
v 5.287179 1.000000 -6.051265
v 5.389846 -1.000000 -5.403053
v 3.292190 -1.000000 -7.500710
v 5.389846 -1.000000 -9.598366
v 7.485619 -1.000000 -7.589571
v 5.287179 -1.000000 -6.051265
v 4.989229 -1.000000 -6.636024
v 4.525161 -1.000000 -7.100093
v 3.940401 -1.000000 -7.398043
v 0.605708 1.000000 3.274858
v 0.018103 1.000000 3.862463
v 0.311906 1.000000 3.353582
v 0.096827 1.000000 3.568660
v 0.018103 -1.000000 3.862463
v 0.605708 -1.000000 3.274858
v 0.096827 -1.000000 3.568660
v 0.311906 -1.000000 3.353582
v 3.947582 1.000000 -2.563563
v 3.764303 1.000000 -2.267091
v 3.959223 1.000000 -2.463351
v 3.764303 -1.000000 -2.267091
v 3.947582 -1.000000 -2.563562
v 3.959223 -1.000000 -2.463351
v 3.929067 -1.000000 -1.682011
v 3.764303 -1.000000 -1.981090
v 3.959225 -1.000000 -1.785280
v 3.764303 1.000000 -1.981090
v 3.929067 1.000000 -1.682012
v 3.959225 1.000000 -1.785280
vn 0.0801 -0.0000 0.9968
vn -0.0000 -1.0000 -0.0000
vn -0.0000 1.0000 -0.0000
vn -1.0000 -0.0000 -0.0000
vn 1.0000 -0.0000 -0.0000
vn 0.9495 -0.0000 0.3138
vn 0.8189 -0.0000 0.5739
vn 0.5156 -0.0000 0.8568
vn -0.2588 -0.0000 0.9659
vn -0.7071 -0.0000 0.7071
vn -0.9659 -0.0000 0.2588
vn 0.2588 -0.0000 0.9659
vn 0.7071 -0.0000 0.7071
vn 0.9841 -0.0000 0.1778
vn -0.0000 -0.0000 1.0000
vn -0.2588 -0.0000 -0.9659
vn -0.7071 -0.0000 -0.7071
vn -0.9659 -0.0000 -0.2588
vn -0.0000 -0.0000 -1.0000
vn 0.9808 -0.0000 -0.1951
vn 0.8315 -0.0000 -0.5556
vn 0.5556 -0.0000 -0.8315
vn 0.1951 -0.0000 -0.9808
vn 0.9214 -0.0000 -0.3885
vn 0.9879 -0.0000 0.1552
vn 0.5785 -0.0000 -0.8157
vn 0.8913 -0.0000 0.4534
vn 0.5889 -0.0000 0.8082
vn 0.6239 -0.0000 0.7815
vn 0.6007 -0.0000 0.7995
vn -0.9497 -0.0000 -0.3130
vn -0.7946 -0.0000 -0.6072
vn -0.6072 -0.0000 -0.7946
vn -0.3130 -0.0000 -0.9497
vn -0.8148 -0.0000 -0.5797
vn -0.1564 -0.0000 0.9877
vn -0.4540 -0.0000 0.8910
vn -0.8910 -0.0000 0.4540
vn -0.9877 -0.0000 0.1564
vn -0.8506 -0.0000 -0.5258
vn -0.8759 -0.0000 0.4825
vn -0.5254 -0.0000 -0.8509
vn -0.5343 -0.0000 0.8453
vt 0.375000 0.741735
vt 0.625000 0.741735
vt 0.625000 0.750000
vt 0.375000 0.750000
vt 0.125000 0.635116
vt 0.250000 0.635116
vt 0.250000 0.683872
vt 0.125000 0.683872
vt 0.750000 0.635116
vt 0.875000 0.635116
vt 0.875000 0.683872
vt 0.750000 0.683872
vt 0.375000 0.049595
vt 0.625000 0.049595
vt 0.625000 0.066128
vt 0.375000 0.066128
vt 0.375000 0.615061
vt 0.625000 0.615061
vt 0.625000 0.635116
vt 0.375000 0.635116
vt 0.250000 0.615061
vt 0.750000 0.615061
vt 0.875000 0.615061
vt 0.125000 0.615061
vt 0.625000 0.114884
vt 0.375000 0.114884
vt 0.125000 0.565201
vt 0.250000 0.565201
vt 0.750000 0.565201
vt 0.875000 0.565201
vt 0.625000 0.134939
vt 0.375000 0.134939
vt 0.625000 0.184799
vt 0.375000 0.184799
vt 0.375000 0.016530
vt 0.625000 0.016530
vt 0.625000 0.033061
vt 0.375000 0.033061
vt 0.125000 0.700405
vt 0.250000 0.700405
vt 0.250000 0.716939
vt 0.125000 0.716939
vt 0.625000 0.700405
vt 0.750000 0.700405
vt 0.750000 0.716939
vt 0.625000 0.716939
vt 0.875000 0.700405
vt 0.875000 0.716939
vt 0.375000 0.700405
vt 0.375000 0.716939
vt 0.375000 0.008265
vt 0.625000 0.008265
vt 0.250000 0.733469
vt 0.125000 0.733469
vt 0.750000 0.733469
vt 0.625000 0.733470
vt 0.875000 0.733469
vt 0.375000 0.733469
vt 0.375000 0.000000
vt 0.625000 0.000000
vt 0.250000 0.741735
vt 0.125000 0.741735
vt 0.750000 0.741735
vt 0.875000 0.741735
vt 0.375000 0.938682
vt 0.625000 0.938682
vt 0.625000 1.000000
vt 0.375000 1.000000
vt 0.625000 0.936318
vt 0.375000 0.936318
vt 0.375000 0.905659
vt 0.625000 0.905659
vt 0.375000 0.875000
vt 0.625000 0.875000
vt 0.625000 0.279847
vt 0.375000 0.279847
vt 0.375000 0.264923
vt 0.625000 0.264923
vt 0.375000 0.242398
vt 0.625000 0.242398
vt 0.375000 0.234796
vt 0.625000 0.234796
vt 0.625000 0.375000
vt 0.375000 0.375000
vt 0.125000 0.515204
vt 0.128999 0.507602
vt 0.139923 0.502037
vt 0.154847 0.500000
vt 0.250000 0.500000
vt 0.750000 0.500000
vt 0.845153 0.500000
vt 0.860077 0.502037
vt 0.871001 0.507602
vt 0.875000 0.515204
vt 0.625000 0.517092
vt 0.375000 0.517092
vt 0.374650 0.510551
vt 0.625350 0.510551
vt 0.373653 0.501669
vt 0.626347 0.501669
vt 0.372161 0.494755
vt 0.627839 0.494755
vt 0.370401 0.490801
vt 0.629599 0.490801
vt 0.375000 0.681448
vt 0.375000 0.687245
vt 0.371625 0.683872
vt 0.625000 0.688011
vt 0.625000 0.681594
vt 0.628375 0.683872
vt 0.375000 0.559524
vt 0.375000 0.568545
vt 0.370417 0.565201
vt 0.625000 0.568545
vt 0.625000 0.560451
vt 0.629583 0.565201
vt 0.254144 0.750000
vt 0.250000 0.750000
vt 0.239408 0.750000
vt 0.250000 0.746403
vt 0.750000 0.750000
vt 0.745856 0.750000
vt 0.750000 0.746403
vt 0.760592 0.750000
vt 0.625000 0.875000
vt 0.375000 0.866712
vt 0.625000 0.866712
vt 0.125000 0.750000
vt 0.241785 0.750000
vt 0.219341 0.750000
vt 0.188682 0.750000
vt 0.186318 0.750000
vt 0.155659 0.750000
vt 0.133215 0.750000
vt 0.875000 0.750000
vt 0.866785 0.750000
vt 0.844341 0.750000
vt 0.813682 0.750000
vt 0.811318 0.750000
vt 0.780659 0.750000
vt 0.758215 0.750000
vt 0.375000 0.053318
vt 0.625000 0.053318
vt 0.625000 0.250000
vt 0.375000 0.250000
vt 0.375000 0.500000
vt 0.375000 0.696682
vt 0.625000 0.696682
vt 0.625000 0.500000
vt 0.625000 0.750000
vt 0.125000 0.696682
vt 0.875000 0.696682
vt 0.875000 0.500000
vt 0.125000 0.500000
vt 0.375000 0.750000
vt 0.625000 0.750000
vt 0.625000 0.696683
vt 0.375000 0.696682
vt 0.375000 0.696683
vt 0.375000 0.696683
vt 0.625000 0.696683
vt 0.625000 0.696682
vt 0.375000 0.696682
s 0
f 50/1/1 46/2/1 4/3/1 3/4/1
f 13/5/2 16/6/2 10/7/2 7/8/2
f 15/9/3 11/10/3 8/11/3 9/12/3
f 41/13/4 39/14/4 8/15/4 7/16/4
f 18/17/5 20/18/5 14/19/5 12/20/5
f 22/21/2 18/17/2 12/20/2 16/6/2
f 21/22/3 17/23/3 11/10/3 15/9/3
f 20/18/3 21/22/3 15/9/3 14/19/3
f 19/24/2 22/21/2 16/6/2 13/5/2
f 7/16/4 8/15/4 11/25/4 13/26/4
f 24/27/2 26/28/2 22/21/2 19/24/2
f 25/29/3 23/30/3 17/23/3 21/22/3
f 13/26/4 11/25/4 17/31/4 19/32/4
f 19/32/4 17/31/4 23/33/4 24/34/4
f 33/35/4 37/36/4 31/37/4 27/38/4
f 41/39/2 44/40/2 30/41/2 27/42/2
f 42/43/3 43/44/3 29/45/3 28/46/3
f 43/44/3 39/47/3 31/48/3 29/45/3
f 44/40/2 40/49/2 32/50/2 30/41/2
f 40/49/6 42/43/6 28/46/6 32/50/6
f 45/51/4 49/52/4 37/36/4 33/35/4
f 27/42/2 30/41/2 36/53/2 33/54/2
f 28/46/3 29/45/3 35/55/3 34/56/3
f 29/45/3 31/48/3 37/57/3 35/55/3
f 30/41/2 32/50/2 38/58/2 36/53/2
f 32/50/7 28/46/7 34/56/7 38/58/7
f 9/12/3 8/11/3 39/47/3 43/44/3
f 7/8/2 10/7/2 44/40/2 41/39/2
f 27/38/4 31/37/4 39/14/4 41/13/4
f 1/59/4 2/60/4 49/52/4 45/51/4
f 33/54/2 36/53/2 48/61/2 45/62/2
f 34/56/3 35/55/3 47/63/3 46/2/3
f 35/55/3 37/57/3 49/64/3 47/63/3
f 36/53/2 38/58/2 50/1/2 48/61/2
f 38/58/8 34/56/8 46/2/8 50/1/8
f 51/65/9 56/66/9 58/67/9 53/68/9
f 53/59/10 58/60/10 57/60/10 54/59/10
f 54/59/11 57/60/11 55/60/11 52/59/11
f 59/69/12 64/70/12 66/71/12 61/72/12
f 61/72/13 66/71/13 65/73/13 62/74/13
f 62/74/14 65/73/14 63/73/14 60/74/14
f 2/60/4 1/59/4 52/59/4 55/60/4
f 64/70/15 59/69/15 56/66/15 51/65/15
f 71/75/16 68/76/16 70/77/16 73/78/16
f 73/78/17 70/77/17 69/79/17 74/80/17
f 74/80/18 69/79/18 67/81/18 72/82/18
f 68/76/19 71/75/19 6/83/19 5/84/19
f 67/85/2 69/86/2 70/87/2 68/88/2 5/89/2 26/28/2 24/27/2
f 24/34/4 23/33/4 72/82/4 67/81/4
f 6/90/3 71/91/3 73/92/3 74/93/3 72/94/3 23/30/3 25/29/3
f 80/95/20 76/96/20 79/97/20 82/98/20
f 82/98/21 79/97/21 78/99/21 83/100/21
f 83/100/22 78/99/22 77/101/22 84/102/22
f 84/102/23 77/101/23 75/103/23 81/104/23
f 5/84/19 6/83/19 81/104/19 75/103/19
f 85/105/2 86/106/2 87/107/2
f 88/108/3 89/109/3 90/110/3
f 88/108/24 86/106/24 85/105/24 89/109/24
f 10/7/2 87/107/2 86/106/2 40/49/2 44/40/2
f 16/6/2 12/20/2 85/105/2 87/107/2 10/7/2
f 86/106/25 88/108/25 42/43/25 40/49/25
f 12/20/26 14/19/26 89/109/26 85/105/26
f 14/19/3 15/9/3 9/12/3 90/110/3 89/109/3
f 88/108/3 90/110/3 9/12/3 43/44/3 42/43/3
f 91/111/2 92/112/2 93/113/2
f 94/114/3 95/115/3 96/116/3
f 94/114/27 92/112/27 91/111/27 95/115/27
f 92/112/28 94/114/28 20/18/28 18/17/28
f 5/89/2 75/103/2 77/101/2 78/99/2 79/97/2 76/96/2 91/111/2 93/113/2 26/28/2
f 76/96/5 80/95/5 95/115/5 91/111/5
f 26/28/2 93/113/2 92/112/2 18/17/2 22/21/2
f 94/114/3 96/116/3 25/29/3 21/22/3 20/18/3
f 80/95/3 82/98/3 83/100/3 84/102/3 81/104/3 6/90/3 25/29/3 96/116/3 95/115/3
f 97/117/2 98/118/2 99/119/2 100/120/2
f 101/121/3 102/122/3 103/123/3 104/124/3
f 101/125/29 98/73/29 97/126/29 102/127/29
f 3/4/15 4/3/15 102/127/15 97/126/15
f 45/62/2 48/61/2 100/120/2 99/119/2 1/128/2
f 48/61/2 50/1/2 3/4/2 97/117/2 100/120/2
f 98/73/5 101/125/5 60/74/5 63/73/5
f 1/128/2 99/119/2 98/118/2 63/118/2 65/129/2 66/130/2 64/131/2 51/132/2 53/133/2 54/134/2 52/128/2
f 101/121/3 104/124/3 2/135/3 55/135/3 57/136/3 58/137/3 56/138/3 59/139/3 61/140/3 62/141/3 60/121/3
f 46/2/3 47/63/3 103/123/3 102/122/3 4/3/3
f 47/63/3 49/64/3 2/135/3 104/124/3 103/123/3
f 113/142/4 114/143/4 108/144/4 107/145/4
f 111/146/30 164/147/30 163/148/30 112/149/30
f 129/148/3 127/150/3 118/3/3 117/148/3
f 109/4/15 110/3/15 106/67/15 105/68/15
f 113/151/2 115/147/2 109/4/2 105/128/2
f 116/148/3 114/152/3 106/135/3 110/3/3
f 112/149/3 108/153/3 114/152/3 116/148/3
f 107/154/2 111/146/2 115/147/2 113/151/2
f 111/146/5 112/149/5 116/148/5 115/147/5
f 105/59/4 106/60/4 114/143/4 113/142/4
f 120/147/5 117/148/5 118/3/5 119/4/5
f 127/150/15 128/4/15 119/4/15 118/3/15
f 117/148/5 120/147/5 126/147/5 125/148/5
f 128/4/2 130/147/2 120/147/2 119/4/2
f 109/4/2 115/147/2 124/147/2 123/155/2
f 115/147/19 116/148/19 122/148/19 124/147/19
f 110/3/15 109/4/15 123/155/15 121/156/15
f 116/148/3 110/3/3 121/156/3 122/148/3
f 138/157/5 139/147/5 162/147/5 131/148/5
f 134/148/19 135/147/19 165/147/19 166/148/19
f 108/153/3 112/149/3 163/148/3 166/148/3
f 123/155/2 124/147/2 130/147/2 128/4/2
f 121/156/15 123/155/15 128/4/15 127/150/15
f 122/148/3 121/156/3 127/150/3 129/148/3
f 135/147/19 134/148/19 132/148/19 133/147/19
f 131/148/5 162/147/5 133/147/5 132/148/5
f 144/148/5 145/158/5 139/147/5 138/157/5
f 125/148/5 126/147/5 141/159/5 143/148/5
f 147/148/5 146/160/5 145/158/5 144/148/5
f 143/148/5 141/159/5 146/160/5 147/148/5
f 148/148/3 152/148/3 153/148/3 154/148/3 149/148/3 150/148/3 151/148/3
f 155/147/2 159/147/2 160/147/2 161/147/2 156/147/2 157/147/2 158/147/2
f 148/148/31 156/147/31 161/147/31 152/148/31
f 152/148/32 161/147/32 160/147/32 153/148/32
f 153/148/33 160/147/33 159/147/33 154/148/33
f 154/148/34 159/147/34 155/147/34 149/148/34
f 156/147/4 148/148/4 142/148/4 140/147/4
f 148/148/3 151/148/3 125/148/3 143/148/3 142/148/3
f 129/148/3 117/148/3 125/148/3 151/148/3 150/148/3
f 120/147/2 130/147/2 158/147/2 157/147/2 126/147/2
f 126/147/2 157/147/2 156/147/2 140/147/2 141/159/2
f 111/146/2 107/154/2 165/147/2 164/147/2
f 107/154/35 108/153/35 166/148/35 165/147/35
f 167/161/3 171/148/3 172/162/3 173/148/3 174/148/3 168/148/3 169/148/3 170/148/3
f 175/147/2 179/147/2 180/147/2 181/147/2 182/147/2 176/147/2 177/147/2 178/147/2
f 167/161/36 176/147/36 182/147/36 171/148/36
f 171/148/37 182/147/37 181/147/37 172/162/37
f 172/162/10 181/147/10 180/147/10 173/148/10
f 173/148/38 180/147/38 179/147/38 174/148/38
f 174/148/39 179/147/39 175/147/39 168/148/39
f 137/147/4 136/148/4 168/148/4 175/147/4
f 170/148/3 169/148/3 131/148/3 132/148/3 134/148/3
f 167/161/3 170/148/3 134/148/3 166/148/3 163/148/3
f 136/148/3 138/157/3 131/148/3 169/148/3 168/148/3
f 176/147/15 167/161/15 163/148/15 164/147/15
f 135/147/2 177/147/2 176/147/2 164/147/2 165/147/2
f 162/147/2 178/147/2 177/147/2 135/147/2 133/147/2
f 139/147/2 137/147/2 175/147/2 178/147/2 162/147/2
f 183/148/16 188/147/16 190/147/16 185/148/16
f 185/148/17 190/147/17 189/147/17 186/148/17
f 186/148/18 189/147/18 187/147/18 184/148/18
f 188/147/19 183/148/19 149/148/19 155/147/19
f 124/147/4 122/148/4 184/148/4 187/147/4
f 122/148/3 129/148/3 150/148/3 149/148/3 183/148/3 185/148/3 186/148/3 184/148/3
f 130/147/2 124/147/2 187/147/2 189/147/2 190/147/2 188/147/2 155/147/2 158/147/2
f 191/148/3 192/148/3 193/148/3
f 194/147/2 195/147/2 196/147/2
f 197/163/2 198/163/2 199/163/2
f 200/148/3 201/148/3 202/148/3
f 191/148/40 195/147/40 194/147/40 192/148/40
f 200/148/41 198/163/41 197/163/41 201/148/41
f 195/147/42 191/148/42 136/148/42 137/147/42
f 200/148/3 202/148/3 147/148/3 144/148/3 193/148/3 192/148/3
f 198/163/4 200/148/4 192/148/4 194/147/4
f 191/148/3 193/148/3 144/148/3 138/157/3 136/148/3
f 146/160/2 199/163/2 198/163/2 194/147/2 196/147/2 145/158/2
f 145/158/2 196/147/2 195/147/2 137/147/2 139/147/2
f 140/147/43 142/148/43 201/148/43 197/163/43
f 141/159/2 140/147/2 197/163/2 199/163/2 146/160/2
f 142/148/3 143/148/3 147/148/3 202/148/3 201/148/3
